<svg width="24" height="24" viewBox="-4.5 -4.5 24 24" fill="none" xmlns="http://www.w3.org/2000/svg">
<g id="&#208;&#151;&#208;&#176;&#208;&#186;&#209;&#128;&#209;&#139;&#209;&#130;&#209;&#140;">
<path id="Vector" d="M7.5 15C11.6421 15 15 11.6421 15 7.5C15 3.35786 11.6421 0 7.5 0C3.35786 0 0 3.35786 0 7.5C0 11.6421 3.35786 15 7.5 15Z" fill="#1D1D1F" fill-opacity="0.5"/>
<g id="Vector_2">
<path d="M5.11 5.64111C4.96333 5.49445 4.96333 5.25666 5.11 5.11C5.25666 4.96333 5.49445 4.96333 5.64111 5.11L9.89 9.35889C10.0367 9.50555 10.0367 9.74334 9.89 9.89C9.74334 10.0367 9.50555 10.0367 9.35889 9.89L5.11 5.64111Z" fill="white"/>
<path d="M5.64111 9.89C5.49445 10.0367 5.25666 10.0367 5.11 9.89C4.96333 9.74334 4.96333 9.50555 5.11 9.35889L9.35889 5.11C9.50555 4.96333 9.74334 4.96333 9.89 5.11C10.0367 5.25666 10.0367 5.49445 9.89 5.64111L5.64111 9.89Z" fill="white"/>
</g>
</g>
</svg>
