<svg width="24" height="22" viewBox="-1.5 0 21 22" fill="none" xmlns="http://www.w3.org/2000/svg">
<g id="Group">
<path id="Vector" d="M16.8367 11.2025H16.1718C16.1611 11.2033 16.1509 11.2079 16.1433 11.2155C16.1356 11.2231 16.131 11.2333 16.1303 11.2441V13.3536C15.9851 13.3952 15.8394 13.416 15.6734 13.416C15.2371 13.416 15.1332 13.281 15.1332 12.699V11.2441C15.1324 11.2333 15.1278 11.2231 15.1202 11.2155C15.1125 11.2079 15.1024 11.2033 15.0916 11.2025H14.4272C14.4165 11.2033 14.4063 11.2079 14.3987 11.2155C14.391 11.2231 14.3864 11.2333 14.3857 11.2441V12.7718C14.3857 13.7276 14.7076 14.0916 15.528 14.0916C15.9953 14.0916 16.525 13.9669 16.8367 13.8525C16.847 13.842 16.8573 13.8318 16.8573 13.8212V11.2443C16.878 11.2235 16.8573 11.2028 16.8367 11.2028V11.2025ZM2.75354 11.213H2.07838C2.05761 11.213 2.04734 11.2233 2.04734 11.2441C1.94345 11.6596 1.72541 12.3663 1.43452 13.1043L0.759606 11.2338C0.749095 11.2233 0.738828 11.213 0.728317 11.213H0.0428952C0.0323841 11.213 0.0221174 11.2233 0.0116062 11.2338C0.00133958 11.2441 0.00133958 11.2546 0.0116062 11.2648L1.02947 14.05C0.93908 14.2404 0.842057 14.4275 0.738584 14.611C0.665984 14.7357 0.603651 14.8604 0.541317 14.9956C0.531051 15.0061 0.531051 15.0163 0.541317 15.0268C0.551829 15.0371 0.562095 15.0476 0.572606 15.0476H1.30985C1.32036 15.0476 1.34114 15.0371 1.34114 15.0268C1.49444 14.7274 1.63648 14.4224 1.76696 14.1124C2.20305 13.0938 2.54576 12.1378 2.80561 11.2648C2.80561 11.2546 2.80561 11.2441 2.79509 11.2338C2.77432 11.213 2.76405 11.213 2.75354 11.213ZM5.17354 13.3536C5.17319 13.3482 5.17089 13.3431 5.16707 13.3393C5.16324 13.3355 5.15816 13.3332 5.15276 13.3328H5.12147C4.95525 13.3952 4.65409 13.4367 4.44632 13.4367C3.97918 13.4367 3.76089 13.3121 3.76089 12.6056C3.76089 12.0339 3.83374 11.774 4.44632 11.774C4.62305 11.774 4.77876 11.7948 4.98654 11.8571C5.00732 11.8571 5.01758 11.8571 5.02809 11.8364L5.29796 11.2961V11.2648C5.29762 11.2594 5.29532 11.2544 5.29149 11.2505C5.28767 11.2467 5.28258 11.2444 5.27718 11.2441C4.99092 11.1571 4.69367 11.1116 4.39449 11.1089C3.42869 11.1089 2.99236 11.5662 2.99236 12.5951C2.99236 13.6342 3.42869 14.1019 4.39449 14.1019C4.63332 14.1019 5.12147 14.05 5.35003 13.9564C5.37081 13.9459 5.38107 13.9251 5.37081 13.9044L5.17354 13.3536ZM11.4983 11.213H10.8234C10.8026 11.213 10.7921 11.2233 10.7921 11.2441C10.6882 11.6701 10.4702 12.3663 10.1793 13.1043L9.50436 11.2338C9.49385 11.2233 9.48358 11.213 9.47307 11.213H8.78765C8.77738 11.213 8.76687 11.2233 8.75661 11.2338C8.74609 11.2441 8.74609 11.2546 8.75661 11.2648L9.77423 14.05C9.68383 14.2404 9.58681 14.4275 9.48334 14.611C9.41074 14.7357 9.34841 14.8604 9.28607 14.9956C9.27581 15.0061 9.27581 15.0163 9.28607 15.0268C9.29658 15.0371 9.30685 15.0476 9.31736 15.0476H10.0546C10.0651 15.0476 10.0859 15.0371 10.0859 15.0268C10.2392 14.7274 10.3812 14.4224 10.5117 14.1124C10.9375 13.0938 11.2905 12.1378 11.5504 11.2648C11.5504 11.2546 11.5504 11.2441 11.5398 11.2338C11.5191 11.213 11.5088 11.213 11.4983 11.213ZM13.9909 11.2025H12.028C12.0172 11.2033 12.0071 11.2079 11.9994 11.2155C11.9918 11.2231 11.9872 11.2333 11.9864 11.2441V13.9772C11.9864 13.998 12.0072 14.0188 12.028 14.0188H12.6929C12.7134 14.0188 12.7344 13.998 12.7344 13.9772V11.8571H13.7623C13.7728 11.8571 13.7936 11.8469 13.7936 11.8364C13.8767 11.6494 13.9493 11.4518 14.0324 11.2546V11.2233C14.0117 11.213 14.0014 11.2025 13.9909 11.2025Z" fill="#1D1D1F"/>
<path id="Vector_2" d="M3.54151 7.00416C2.58598 7.00416 2.21222 7.41972 2.21222 8.46936C2.21222 9.53979 2.58622 9.95559 3.54151 9.95559C4.50731 9.95559 4.88107 9.53979 4.88107 8.46936C4.88107 7.41972 4.50731 7.00416 3.54151 7.00416ZM3.54151 9.35279C3.10542 9.35279 2.97024 9.23839 2.97024 8.49014C2.97024 7.70059 3.11569 7.62774 3.54151 7.62774C3.97784 7.62774 4.12329 7.70034 4.12329 8.49014C4.12329 9.22812 3.98811 9.35279 3.54151 9.35279ZM7.54013 9.23839C7.53979 9.23299 7.53749 9.2279 7.53366 9.22408C7.52984 9.22025 7.52475 9.21795 7.51935 9.21761H7.48807C7.32184 9.27994 7.02069 9.3215 6.81315 9.3215C6.34578 9.3215 6.12749 9.19683 6.12749 8.49039C6.12749 7.91839 6.18982 7.65879 6.81315 7.65879C6.98964 7.65879 7.1456 7.67956 7.35313 7.7419C7.37391 7.7419 7.38418 7.7419 7.39469 7.72112L7.66455 7.1809V7.14961C7.66421 7.14421 7.66191 7.13912 7.65808 7.1353C7.65426 7.13148 7.64917 7.12918 7.64378 7.12883C7.35759 7.04186 7.06043 6.99634 6.76133 6.99365C5.79529 6.99365 5.35895 7.45076 5.35895 8.47987C5.35895 9.51876 5.79529 9.98663 6.76109 9.98663C6.99991 9.98663 7.48807 9.93456 7.71662 9.84119C7.7374 9.83067 7.74767 9.8099 7.7374 9.78912L7.54013 9.23839ZM0.0415556 7.08727C0.0307789 7.08802 0.0206347 7.09263 0.0129965 7.10027C0.0053582 7.10791 0.00074186 7.11805 0 7.12883V9.86172C0 9.88274 0.0207778 9.90327 0.0415556 9.90327H0.706444C0.726978 9.90327 0.748 9.88274 0.748 9.86172V7.7419H1.77589C1.7864 7.7419 1.80718 7.73163 1.80718 7.72112C1.89029 7.53412 1.96289 7.33661 2.046 7.13934V7.10805C2.03549 7.09754 2.02522 7.08727 2.01471 7.08727H0.0415556Z" fill="#1D1D1F"/>
<path id="Vector_3" fill-rule="evenodd" clip-rule="evenodd" d="M19.9407 13.728V13.6864C19.9407 13.6657 19.9407 13.6344 19.9512 13.6136C19.9822 13.2291 20.003 12.7615 20.0238 12.221V12.1794L20.0445 11.0156C20.0445 10.6104 20.0343 10.2153 20.0238 9.8516V9.81004L19.9512 8.41769C19.9512 8.39667 19.9512 8.36562 19.9407 8.34484V8.30329C19.9407 8.26173 19.9304 8.23044 19.9304 8.18889V8.14733C19.8991 7.74204 19.8783 7.49271 19.8681 7.47193C19.8681 7.43038 19.8575 7.38882 19.8575 7.35753V7.32649C19.8487 7.25632 19.8348 7.18688 19.816 7.11871C19.816 7.1082 19.816 7.09769 19.8057 7.08742C19.6292 6.24556 19.1619 5.32082 18.5801 4.6244C18.3518 4.35429 18.1127 4.11522 17.8636 3.92822C16.9253 3.23637 15.951 2.59462 14.9449 2.00567C13.4184 1.10147 12.0475 0.477889 11.8711 0.394778C11.8605 0.394778 11.8605 0.384511 11.8605 0.384511C11.4555 0.207778 10.9673 0.0831111 10.4379 0.0312889C10.334 0.0207778 10.2301 0.0105111 10.1262 0.0105111C10.0326 0.0105111 9.93921 0 9.84584 0H9.70039C8.98368 0.0105111 8.32955 0.145444 7.8101 0.384511C7.72699 0.4158 6.34588 1.0494 4.77753 1.96411L4.71519 1.99516C3.71307 2.59412 2.73922 3.23917 1.79677 3.92822C1.40224 4.21911 1.04902 4.59311 0.727082 5.07124C0.654482 5.18564 0.654482 5.45576 0.965904 5.45576H1.76573C2.10844 5.45576 2.19155 5.24798 2.57581 4.96736C3.00164 4.65569 3.84277 4.03211 5.37984 3.11764C6.49108 2.46302 7.52973 1.9536 8.02815 1.71453C8.03866 1.71453 8.04893 1.70427 8.05944 1.70427C8.05944 1.70427 8.0697 1.70427 8.0697 1.694C8.0697 1.694 8.08021 1.694 8.08021 1.68349C8.09048 1.68349 8.10099 1.67322 8.10099 1.67322C8.11126 1.67322 8.12177 1.66271 8.13204 1.66271C8.2567 1.60038 8.33981 1.56909 8.33981 1.56909C8.69304 1.41338 9.19146 1.30949 9.72092 1.29898H9.9287C10.0847 1.29898 10.2404 1.30949 10.3858 1.33027C10.7077 1.37182 10.9986 1.43416 11.2375 1.53804C11.2582 1.54831 11.2893 1.55882 11.3101 1.56909C12.3245 2.04107 13.3158 2.56127 14.2805 3.12791C15.2456 3.69731 16.1814 4.31474 17.0846 4.97787C17.2818 5.12331 17.4793 5.33109 17.6663 5.55964C18.1335 6.16244 18.5177 6.98353 18.5801 7.61738C18.5801 7.62789 18.6114 7.87722 18.6424 8.30329C18.6424 8.33433 18.6424 8.35511 18.6529 8.3864V8.44873C18.6529 8.49029 18.6632 8.52158 18.6632 8.56313V8.60469C18.6632 8.62547 18.6632 8.65651 18.6737 8.67729C18.6737 8.72936 18.684 8.78118 18.684 8.83325C18.684 8.86453 18.684 8.89558 18.6945 8.92687V8.94764C18.6945 8.9892 18.6945 9.02024 18.7047 9.0618V9.14491C18.7749 10.3842 18.7749 11.626 18.7047 12.8654V12.9485C18.7047 12.99 18.7047 13.0213 18.6945 13.0629V13.0836C18.6945 13.1147 18.6945 13.146 18.684 13.177C18.684 13.2291 18.6737 13.2812 18.6737 13.333C18.6737 13.3643 18.6737 13.385 18.6632 13.4058V13.4474C18.6632 13.4889 18.6529 13.52 18.6529 13.5615V13.6241C18.6529 13.6552 18.6529 13.6864 18.6424 13.7072C18.6114 14.1333 18.5801 14.3929 18.5801 14.3929C18.5177 15.027 18.1335 15.8478 17.6661 16.4506C17.4793 16.6897 17.2818 16.8872 17.0846 17.0324C17.0743 17.0324 16.8042 17.2404 16.3576 17.5521C14.7746 18.6505 13.0997 19.6101 11.3516 20.4204L11.3101 20.4412C11.2893 20.4517 11.2582 20.462 11.2375 20.4725C10.9986 20.5658 10.7077 20.6387 10.3858 20.6802C10.2404 20.701 10.0847 20.7113 9.9287 20.7113H9.72092C9.19146 20.701 8.69304 20.6074 8.33981 20.4412C8.33981 20.4412 8.26721 20.4101 8.13204 20.3476C8.12177 20.3373 8.10099 20.3373 8.09048 20.3268C8.08021 20.3165 8.0697 20.3165 8.05944 20.306C8.04893 20.306 8.04893 20.2957 8.03866 20.2957C8.02815 20.2957 8.01788 20.2852 8.00761 20.2852C7.9971 20.275 7.98684 20.275 7.96606 20.2644H7.95555C7.07406 19.8448 6.21118 19.3872 5.36933 18.8929C3.82199 17.9887 2.99113 17.3548 2.56555 17.0429C2.18104 16.7623 2.09793 16.5545 1.75521 16.5545H0.965904C0.654482 16.5545 0.654482 16.8249 0.727082 16.9285C1.04902 17.4069 1.40224 17.7809 1.79677 18.0718C1.84884 18.1133 3.11579 19.0486 4.71544 19.9943C4.7983 20.0464 4.88141 20.0982 4.97479 20.1398C6.46004 20.9919 7.7375 21.5739 7.81035 21.6155C8.31904 21.844 8.98368 21.9792 9.69012 22H9.83533C9.92895 22 10.0223 22 10.1157 21.9895C10.2196 21.9895 10.3235 21.9792 10.4274 21.9687C10.9571 21.9169 11.4555 21.7922 11.85 21.6155C11.85 21.6155 11.8605 21.6155 11.8605 21.6052C12.037 21.5221 13.4079 20.888 14.9347 19.9943C15.6664 19.5611 16.3834 19.1036 17.0846 18.6225L17.8531 18.0718C18.1024 17.8848 18.3413 17.6457 18.5698 17.3756C19.1516 16.6792 19.6187 15.7544 19.7952 14.9126C19.7952 14.9023 19.7952 14.8918 19.8057 14.8815C19.816 14.8087 19.8368 14.7358 19.8473 14.6738V14.6422C19.8575 14.6007 19.8575 14.5591 19.8575 14.5278C19.8575 14.507 19.8888 14.2577 19.9199 13.8524V13.8109C19.9407 13.8004 19.9407 13.759 19.9407 13.728Z" fill="#1D1D1F"/>
<path id="Vector_4" d="M8.22486 11.2026H6.18912C6.16834 11.2026 6.15808 11.2131 6.14757 11.2339C6.09574 12.1587 5.91926 13.146 5.66992 13.9565C5.66992 13.9668 5.66992 13.9773 5.68019 13.9876C5.6907 13.9981 5.70097 13.9981 5.71148 13.9981H6.40741C6.42794 13.9981 6.43845 13.9876 6.43845 13.9773C6.63572 13.354 6.79168 12.5432 6.85401 11.8573H7.51866V13.9668C7.51866 13.9876 7.53943 14.0084 7.56021 14.0084H8.22486C8.24563 14.0084 8.26641 13.9876 8.26641 13.9668V11.2339C8.26641 11.2234 8.24563 11.2026 8.22486 11.2026Z" fill="#1D1D1F"/>
</g>
</svg>
