<svg width="24" height="24" viewBox="-1 -1 24 24" fill="none" xmlns="http://www.w3.org/2000/svg">
<g id="Group 955">
<path id="Vector" d="M0 10.56C0 5.58197 0 3.09296 1.53117 1.54648C3.06233 0 5.52671 0 10.4554 0H11.3267C16.2555 0 18.7198 0 20.251 1.54648C21.7822 3.09296 21.7822 5.58197 21.7822 10.56V11.44C21.7822 16.418 21.7822 18.907 20.251 20.4535C18.7198 22 16.2555 22 11.3267 22H10.4554C5.52671 22 3.06233 22 1.53117 20.4535C0 18.907 0 16.418 0 11.44V10.56Z" fill="#1D1D1F"/>
<path id="Vector_2" d="M11.5919 15.8499C6.62739 15.8499 3.79573 12.4124 3.67773 6.69238H6.16454C6.24622 10.8907 8.07952 12.669 9.53165 13.0357V6.69238H11.8733V10.3132C13.3073 10.1574 14.8137 8.50738 15.322 6.69238H17.6636C17.2734 8.92906 15.6397 10.579 14.478 11.2574C15.6397 11.8074 17.5004 13.2465 18.2083 15.8499H15.6306C15.077 14.1082 13.6976 12.7607 11.8733 12.5774V15.8499H11.5919Z" fill="#F5F5F8"/>
</g>
</svg>
