<svg width="24" height="24" viewBox="-4 -4 24 24" fill="none" xmlns="http://www.w3.org/2000/svg">
<g id="Group 947" opacity="1">
<path id="Vector" d="M15.5 8C15.5 12.1421 12.1421 15.5 8 15.5C3.85786 15.5 0.5 12.1421 0.5 8C0.5 3.85786 3.85786 0.5 8 0.5C12.1421 0.5 15.5 3.85786 15.5 8Z" stroke="#3DA0FE"/>
<path id="Vector_2" d="M7.90606 9.5786H7.90126C7.36526 9.5786 6.95166 9.0946 7.04366 8.5666C7.32366 6.9562 8.57726 6.9002 8.57726 5.9002C8.57726 5.6226 8.52926 5.001 7.86046 5.001C7.49886 5.001 7.28606 5.23219 7.16206 5.4786C6.99486 5.8122 6.60926 5.9762 6.24206 5.9114C5.68526 5.8122 5.34366 5.2154 5.57966 4.7018C5.91726 3.9682 6.60846 3.2002 7.97726 3.2002C10.1981 3.2002 10.4957 4.9394 10.4957 5.757C10.4957 7.6898 9.05646 7.7618 8.75806 8.8754C8.65006 9.277 8.32206 9.5786 7.90606 9.5786ZM9.05966 11.6266C9.05966 11.9562 8.95806 12.2346 8.75406 12.461C8.54926 12.6866 8.28126 12.8002 7.95166 12.8002C7.62046 12.8002 7.35326 12.6866 7.14926 12.461C6.94526 12.2346 6.84206 11.9562 6.84206 11.6266C6.84206 11.3042 6.94526 11.0266 7.14926 10.7906C7.35326 10.5562 7.62046 10.4394 7.95166 10.4394C8.28126 10.4394 8.54926 10.5562 8.75406 10.7906C8.95806 11.0266 9.05966 11.305 9.05966 11.6266Z" fill="#3DA0FE"/>
</g>
</svg>
