<svg width="24" height="24" viewBox="-4 -4 24 24" fill="none" xmlns="http://www.w3.org/2000/svg">
<path d="M3.07853 9.08105C3.17396 9.08787 3.24895 9.09469 3.33756 9.13559C3.42618 9.17649 3.5148 9.25147 3.56251 9.34009C3.67158 9.52414 3.7193 9.7559 3.78746 9.9604C3.91016 10.3421 4.03968 10.7239 4.1692 11.1056C4.54411 11.2215 4.91221 11.351 5.28031 11.4737C5.47799 11.5419 5.70294 11.5896 5.88699 11.685C6.01651 11.7532 6.11876 11.8623 6.16648 12.0054C6.20738 12.1417 6.20056 12.2849 6.13239 12.4144C6.08468 12.5098 6.01651 12.5848 5.92108 12.6325C5.73021 12.7416 5.47799 12.8029 5.26668 12.8711C4.89858 12.9938 4.53048 13.1165 4.16238 13.2324C4.03968 13.6005 3.91698 13.9686 3.79428 14.3435C3.72611 14.5548 3.66476 14.8479 3.53525 15.0252C3.42618 15.1751 3.29666 15.2229 3.11261 15.2569C3.03081 15.2569 2.93538 15.2433 2.8604 15.2092C2.76497 15.1683 2.68317 15.0865 2.62863 14.9979C2.5332 14.8343 2.48548 14.6162 2.42413 14.4321C2.29462 14.0299 2.1651 13.6346 2.02195 13.2392C1.66067 13.1233 1.29938 13.0006 0.938102 12.8779C0.733602 12.8098 0.495019 12.7552 0.304153 12.6598C0.161003 12.5848 0.0655699 12.4621 0.0178533 12.3121C-0.0230466 12.1894 0.0110367 12.0258 0.0723866 11.91C0.113287 11.835 0.181453 11.76 0.256436 11.7191C0.460936 11.6032 0.726785 11.5419 0.951735 11.4669C1.3062 11.351 1.66067 11.2215 2.02195 11.1124C2.13102 10.7648 2.25372 10.4171 2.3696 10.0695C2.41732 9.91269 2.47185 9.76272 2.51957 9.60594C2.55365 9.50369 2.58773 9.38099 2.6559 9.29919C2.7786 9.15604 2.90812 9.1015 3.07853 9.08105Z" fill="#3DA0FE"/>
<path d="M3.59638 0.00129176C3.69181 -0.00552489 3.81451 0.014925 3.89631 0.0558249C3.98493 0.103542 4.06673 0.178525 4.11444 0.273958C4.23033 0.485274 4.29849 0.77839 4.37347 1.01016C4.53026 1.48051 4.69386 1.95086 4.84382 2.42802C5.32781 2.5848 5.80497 2.7484 6.28214 2.90519C6.5139 2.98017 6.78657 3.04152 6.99789 3.16422C7.13422 3.2392 7.21602 3.3619 7.25692 3.51187C7.291 3.6482 7.25692 3.79817 7.18875 3.91405C7.13422 4.00267 7.05924 4.06402 6.9638 4.11173C6.85474 4.16627 6.73204 4.20035 6.60934 4.24125C6.41165 4.30942 6.21397 4.37077 6.01629 4.43893C5.62774 4.56845 5.23237 4.72523 4.84382 4.82067C4.66659 5.33192 4.50299 5.84316 4.33257 6.35441C4.26441 6.5521 4.20988 6.78386 4.11444 6.96791C4.02583 7.13151 3.90313 7.19968 3.73271 7.25421C3.63046 7.26785 3.52139 7.25421 3.42596 7.21331C3.32371 7.1656 3.24191 7.10425 3.18738 7.00881C3.07149 6.81113 3.01014 6.53165 2.93516 6.3067C2.77156 5.8159 2.61478 5.31828 2.43754 4.82748C2.0081 4.69797 1.58546 4.54118 1.16283 4.40485C0.890164 4.31623 0.597048 4.24125 0.338015 4.12537C0.188049 4.0572 0.0926156 3.95495 0.0380824 3.79817C-0.0096342 3.66184 0.0108158 3.50505 0.0721657 3.37554C0.119882 3.2801 0.201682 3.20512 0.290299 3.1574C0.501615 3.04152 0.774281 2.98699 0.999231 2.90519C1.4764 2.7484 1.95356 2.5848 2.43754 2.42802C2.50571 2.1349 2.63523 1.83497 2.73066 1.54867C2.81928 1.28282 2.90789 1.01016 2.99651 0.73749C3.05104 0.580707 3.09876 0.369391 3.18738 0.233058C3.29644 0.0899082 3.42596 0.035375 3.59638 0.00129176Z" fill="#3DA0FE"/>
<path d="M10.6861 3.27276C10.7883 3.26595 10.911 3.2864 10.9997 3.33411C11.0951 3.38865 11.1701 3.47045 11.2178 3.56588C11.286 3.70221 11.32 3.859 11.3678 4.00214C11.4496 4.26118 11.5314 4.51339 11.6132 4.77243C11.8449 5.49499 12.104 6.21756 12.3153 6.95376C13.0378 7.17189 13.7604 7.41729 14.4761 7.64905C14.742 7.73085 15.0078 7.81947 15.2737 7.90809C15.4237 7.9558 15.5873 7.9967 15.7236 8.07169C15.8531 8.14667 15.9417 8.26255 15.9826 8.41252C16.0235 8.54885 15.9894 8.69882 15.9213 8.82152C15.8667 8.91695 15.7781 8.99194 15.6759 9.03965C15.5327 9.10782 15.3759 9.14872 15.226 9.18962C14.9874 9.2646 14.742 9.3464 14.5034 9.42138C13.774 9.65997 13.0446 9.92582 12.3085 10.1235C12.0426 10.9279 11.7972 11.739 11.5314 12.5434C11.47 12.7343 11.4087 12.9251 11.3473 13.1092C11.3064 13.2455 11.2655 13.3955 11.1973 13.525C11.1087 13.6886 10.986 13.7568 10.8156 13.8113C10.6997 13.8249 10.5838 13.8113 10.4816 13.7568C10.393 13.7091 10.3044 13.6409 10.2566 13.5455C10.1953 13.4296 10.1612 13.3001 10.1203 13.1705C10.0658 12.9865 10.0044 12.8024 9.94307 12.6184C9.67041 11.7868 9.41137 10.9551 9.13871 10.1235C8.29344 9.82357 7.42091 9.57817 6.56883 9.29868C6.29616 9.21007 5.9826 9.1419 5.72356 9.01238C5.59405 8.94422 5.50543 8.82152 5.46453 8.67837C5.42363 8.54204 5.4509 8.39207 5.51906 8.26937C5.58041 8.1603 5.67585 8.09214 5.78491 8.0376C5.92125 7.97625 6.08484 7.93535 6.23481 7.88764C6.48021 7.81265 6.73243 7.73085 6.97783 7.64905C7.69358 7.41729 8.40932 7.17189 9.13871 6.95376C9.31594 6.37434 9.51362 5.80174 9.69767 5.22233C9.80674 4.87468 9.92262 4.52703 10.0317 4.17938C10.0999 3.96806 10.1544 3.66813 10.2839 3.4909C10.393 3.35456 10.5157 3.30003 10.6861 3.27276Z" fill="#3DA0FE"/>
</svg>
