<svg width="24" height="24" viewBox="-2 -2 24 24" fill="none" xmlns="http://www.w3.org/2000/svg">
<path id="Vector" d="M10 0C4.48603 0 0 4.48604 0 10C0 15.514 4.48603 20 10 20C15.514 20 20 15.514 20 10C20 4.48604 15.514 0 10 0ZM10 1.5C10.3663 1.5 10.7382 1.65246 11.1465 2.02832C11.5548 2.40418 11.9689 3.00126 12.3232 3.77246C12.6082 4.39276 12.8184 5.18813 13.0107 6H6.98926C7.18155 5.18813 7.39175 4.39276 7.67676 3.77246C8.0311 3.00126 8.44522 2.40418 8.85352 2.02832C9.26181 1.65246 9.63374 1.5 10 1.5ZM6.88867 2.09375C6.68188 2.41868 6.48809 2.76644 6.31348 3.14648C5.93297 3.97464 5.64747 4.95491 5.42578 6H2.49805C3.44372 4.22596 5.00017 2.83523 6.88867 2.09375ZM13.1113 2.09375C14.9998 2.83523 16.5563 4.22596 17.502 6H14.5742C14.3525 4.95491 14.067 3.97464 13.6865 3.14648C13.5119 2.76644 13.3181 2.41868 13.1113 2.09375ZM1.87402 7.5H5.23047C5.12772 8.31611 5 9.11592 5 10C5 10.8841 5.12771 11.6839 5.23047 12.5H1.87402C1.63216 11.7098 1.5 10.8706 1.5 10C1.5 9.12938 1.63216 8.29016 1.87402 7.5ZM6.7334 7.5H13.2666C13.3781 8.30671 13.5 9.11031 13.5 10C13.5 10.8897 13.3781 11.6933 13.2666 12.5H6.7334C6.62189 11.6933 6.5 10.8897 6.5 10C6.5 9.11031 6.62189 8.30671 6.7334 7.5ZM14.7695 7.5H18.126C18.3678 8.29016 18.5 9.12938 18.5 10C18.5 10.8706 18.3678 11.7098 18.126 12.5H14.7695C14.8723 11.6839 15 10.8841 15 10C15 9.11592 14.8723 8.31611 14.7695 7.5ZM2.49805 14H5.42578C5.64747 15.0451 5.93297 16.0254 6.31348 16.8535C6.48809 17.2336 6.68188 17.5813 6.88867 17.9062C5.00017 17.1648 3.44372 15.774 2.49805 14ZM6.98926 14H13.0107C12.8184 14.8119 12.6082 15.6072 12.3232 16.2275C11.9689 16.9987 11.5548 17.5958 11.1465 17.9717C10.7382 18.3475 10.3663 18.5 10 18.5C9.63374 18.5 9.26181 18.3475 8.85352 17.9717C8.44522 17.5958 8.0311 16.9987 7.67676 16.2275C7.39175 15.6072 7.18155 14.8119 6.98926 14ZM14.5742 14H17.502C16.5563 15.774 14.9998 17.1648 13.1113 17.9062C13.3181 17.5813 13.5119 17.2336 13.6865 16.8535C14.067 16.0254 14.3525 15.0451 14.5742 14Z" fill="white"/>
</svg>
