<svg width="30" height="27" viewBox="0 0 30 27" fill="none" xmlns="http://www.w3.org/2000/svg">
<g id="Group 790">
<path id="Vector" d="M3.52632 22.0157L2.13847 22.0169C0.718498 22.0175 0.015185 21.9077 0.00916371 20.2813L0.00824653 18.188C0.00854059 17.2229 -0.162794 15.9241 1.04198 15.5912C1.38394 15.4968 1.77743 15.5326 2.13045 15.5323L3.29874 15.5335C3.37546 15.5375 3.44964 15.5385 3.52632 15.5335V22.0157Z" fill="white"/>
<path id="Vector_2" d="M25.0006 16.5015C25.1006 16.303 25.153 16.0846 25.251 15.8851C26.3089 13.7328 29.7149 14.1868 29.933 16.6659C30.0098 17.5387 30.0379 19.8083 29.9229 20.6845C29.614 23.0364 26.3026 23.6489 25.265 21.5571C25.1884 21.4026 25.1232 21.2076 25.0006 21.0833C24.7645 20.7868 23.9931 20.171 23.6738 19.9247C23.6516 19.8454 23.6753 19.6203 23.675 19.5244L23.6738 17.618C24.1392 17.288 24.5528 16.8588 25.0006 16.5015Z" fill="white"/>
<path id="Vector_3" d="M25.0006 16.5017C25.0217 16.5338 24.9996 19.9859 25.0017 20.2954C25.0029 20.4619 25.0893 20.9652 25.0006 21.0835C24.7645 20.7869 23.9931 20.1712 23.6738 19.9248C23.6516 19.8456 23.6753 19.6205 23.675 19.5246L23.6738 17.6182C24.1392 17.2882 24.5528 16.859 25.0006 16.5017Z" fill="white"/>
<path id="Vector_4" d="M6.77389 0.615997C7.36972 0.0400634 8.69784 0.169802 9.45457 0.16962L19.1395 0.170461C21.0778 0.474706 21.1717 1.69778 21.1697 3.35592L21.1699 6.92223C21.1724 8.07714 21.0427 9.25508 19.5981 9.50342C19.1463 9.58114 18.6494 9.5343 18.1904 9.53416L15.6342 9.53402C15.4569 9.53325 14.8745 9.49719 14.7592 9.53409C14.5824 9.49215 14.2973 9.5329 14.1058 9.53339L12.3478 9.53409C12.3489 9.77256 12.3647 10.0209 12.3478 10.2583C12.3185 10.0302 12.346 9.76549 12.3478 9.53409L9.27211 9.53437C8.66228 9.53486 7.95897 9.58583 7.36342 9.47794C5.99069 9.22924 5.80732 8.15975 5.80725 7.03741L5.80753 3.51408C5.80788 2.39117 5.69887 1.32371 6.77389 0.615997Z" fill="white"/>
<path id="Vector_5" d="M15.5346 6.12892C13.6741 4.38644 16.36 1.75311 17.9582 3.58231C18.605 4.32252 18.4827 5.49927 17.7427 6.12892C17.0889 6.67231 16.1774 6.67686 15.5346 6.12892Z" fill="#0E100F"/>
<path id="Vector_6" d="M10.0354 2.95849C12.1348 2.6166 12.9033 6.02601 10.4929 6.51829C8.27838 6.87705 7.68534 3.27202 10.0354 2.95849Z" fill="#0E100F"/>
<path id="Vector_7" d="M12.3478 9.53407L14.1059 9.53337C14.2973 9.53288 14.5825 9.49213 14.7593 9.53407C14.7709 10.0156 14.757 10.4985 14.7593 10.9802L20.0245 10.9795C21.1164 10.9791 21.9194 11.056 22.7489 11.8874C23.6951 12.8356 23.6737 13.9205 23.6743 15.1614V16.911C23.6732 17.1117 23.6339 17.4308 23.6739 17.6182L23.675 19.5246C23.6753 19.6205 23.6516 19.8456 23.6739 19.9249L23.6727 19.944C23.6593 20.2015 23.6722 20.4645 23.6729 20.7226L23.6749 22.2155C23.675 22.555 23.6921 22.9038 23.661 23.2419C23.5345 24.6242 22.4877 25.8085 21.1027 26.0124C20.653 26.0787 20.0471 26.0239 19.5803 26.0239L7.80896 26.0246C6.20784 26.0251 4.73899 26.0126 3.87754 24.3104C3.51981 23.6034 3.4744 22.7943 3.52634 22.0158V15.5336C3.44965 15.5386 3.37547 15.5376 3.29875 15.5336C3.37408 15.5289 3.45083 15.5328 3.52634 15.5336C3.52663 15.1245 3.5277 14.7154 3.51964 14.3064C3.48891 12.7488 4.50338 11.4187 6.02167 11.069C6.6766 10.9181 7.66641 10.9805 8.35858 10.9807C9.6874 10.9811 11.0192 10.9992 12.3478 10.9802V10.2582C12.3647 10.0209 12.3489 9.77254 12.3478 9.53407Z" fill="white"/>
<path id="Vector_8" d="M12.3477 9.53407L14.1058 9.53337C14.2972 9.53288 14.5824 9.49213 14.7592 9.53407C14.7375 10.013 14.7597 10.5002 14.7592 10.9802L13.0987 10.9792C12.8545 10.9788 12.5886 10.9521 12.3477 10.9802V10.2582C12.3646 10.0209 12.3488 9.77254 12.3477 9.53407Z" fill="white"/>
</g>
</svg>
