<svg width="20" height="17" viewBox="0 0 20 17" fill="none" xmlns="http://www.w3.org/2000/svg">
<rect x="4" width="10" height="6" rx="2" fill="#36363A"/>
<path d="M10.3636 3.7711C9.29291 2.79649 10.8386 1.32362 11.7583 2.34673C12.1305 2.76074 12.0602 3.41892 11.6343 3.7711C11.258 4.07503 10.7335 4.07757 10.3636 3.7711Z" fill="white"/>
<path d="M6.87118 2.01332C8.08613 1.82386 8.53082 3.71329 7.13593 3.98611C5.85438 4.18492 5.51119 2.18708 6.87118 2.01332Z" fill="white"/>
<rect x="2" y="7" width="14" height="10" rx="2.5" fill="#36363A"/>
<path d="M8 6.01292L9.4581 6.01245C9.61686 6.01211 9.85337 5.9843 9.99999 6.01292C9.98199 6.3398 10.0004 6.67236 9.99999 7L8.62284 6.99928C8.4203 6.999 8.19981 6.98079 8 7V6.5072C8.01405 6.3452 8.00093 6.17569 8 6.01292Z" fill="#36363A"/>
<rect x="8" y="6" width="2" height="1" fill="#36363A"/>
<path d="M0 11C0 10.4477 0.447715 10 1 10H2V14H1C0.447715 14 0 13.5523 0 13V11Z" fill="#36363A"/>
<rect x="17" y="9" width="3" height="6" rx="1.5" fill="#36363A"/>
<path d="M18 14V10L16 11V13L18 14Z" fill="#36363A"/>
</svg>
