<svg width="170" height="170" viewBox="0 0 170 170" fill="none" xmlns="http://www.w3.org/2000/svg">
<rect x="9.15527e-05" width="170" height="170" fill="#FAFAFB"/>
<path fill-rule="evenodd" clip-rule="evenodd" d="M32.6476 72.2019C35.9902 71.6598 39.5135 72.2019 42.4948 73.9183C45.8374 75.8155 48.6379 79.0678 49.722 82.7717C50.5351 85.4819 50.7157 88.4632 49.6317 91.083C48.4572 94.245 45.9277 96.8648 42.8561 98.1296C39.4232 99.5751 35.5385 99.304 32.467 97.4972C28.763 95.5097 26.3238 91.3541 26.3238 87.1081C24.246 87.1081 22.0778 87.1081 20 87.1081C20 83.8558 21.0841 80.5132 23.0715 77.9837C25.3301 74.9121 28.8533 72.7439 32.6476 72.2019ZM36.984 81.507C34.0027 82.1393 32.0153 85.3013 32.738 88.2825C33.3704 91.3541 36.8936 93.4319 39.7845 92.5285C42.6754 91.8058 44.5726 88.5535 43.6692 85.6626C43.1271 82.6814 39.7845 80.7842 36.984 81.507ZM57.7623 89.2762C59.6595 86.6564 63.8151 86.1143 66.435 88.0115C67.6094 88.8245 68.3321 90.27 68.7839 91.6251C67.6998 91.6251 66.5253 91.6251 65.5316 91.6251C65.1702 91.083 64.8992 90.4507 64.2668 90.1796C63.0021 89.4569 61.1049 89.8183 60.3822 91.1734C59.7498 92.3478 59.7498 93.7933 60.3822 94.9677C61.1049 96.2325 62.9117 96.6842 64.1765 95.9614C64.8089 95.6001 65.1702 94.9677 65.4412 94.516C66.6157 94.516 67.6998 94.516 68.7839 94.516C68.4225 95.8711 67.6094 97.2262 66.435 98.1296C64.1765 99.7557 60.7435 99.5751 58.5754 97.7682C56.3169 95.6001 55.8652 91.7154 57.7623 89.2762ZM73.3009 87.4694C75.1077 86.3853 77.7276 86.7467 79.0827 88.4632C79.0827 88.0115 79.0827 87.6501 79.0827 87.1984C80.1668 87.1984 81.1605 87.1984 82.2446 87.1984C82.2446 91.083 82.2446 95.058 82.2446 98.9427C81.1605 98.9427 80.1668 98.9427 79.0827 98.9427C79.0827 98.491 79.0827 98.1296 79.0827 97.6779C77.8179 99.1233 75.5594 99.5751 73.9333 98.8523C71.6747 98.0393 70.3196 95.6904 70.2293 93.3416C70.139 90.9024 71.3134 88.4632 73.3009 87.4694ZM75.2884 89.999C73.0299 90.812 72.7588 94.245 74.656 95.6001C75.8304 96.4131 77.7276 96.2325 78.631 95.058C79.444 93.8836 79.444 92.0768 78.631 90.9024C77.9986 89.9086 76.4628 89.5473 75.2884 89.999ZM104.92 86.9274C108.263 86.2047 111.967 88.8245 112.328 92.3478C112.78 95.6001 109.979 98.9427 106.727 99.1234C103.475 99.5751 100.132 96.7745 100.042 93.5222C99.59 90.3603 101.939 87.4694 104.92 86.9274ZM105.462 89.9086C104.107 90.27 103.204 91.6251 103.204 92.9802C103.113 94.6063 104.468 96.1421 106.185 96.0518C107.992 96.0518 109.256 94.245 109.076 92.5285C108.895 90.7217 107.179 89.3666 105.462 89.9086ZM129.131 87.4694C130.938 86.3853 133.468 86.7467 134.823 88.4632C134.823 88.0115 134.823 87.6501 134.823 87.1984C135.907 87.1984 136.901 87.1984 137.985 87.1984C137.985 91.083 137.985 95.058 137.985 98.9427C136.901 98.9427 135.907 98.9427 134.823 98.9427C134.823 98.491 134.823 98.1296 134.823 97.6779C133.558 99.1233 131.299 99.5751 129.673 98.8523C127.596 98.0393 126.15 95.8711 125.969 93.7933C125.698 91.1734 126.873 88.6439 129.131 87.4694ZM131.119 89.9086C128.77 90.6313 128.589 94.245 130.486 95.6001C131.751 96.4131 133.558 96.2325 134.461 94.9677C135.274 93.7029 135.274 91.8961 134.371 90.7217C133.648 89.7279 132.293 89.5473 131.119 89.9086ZM84.8645 87.0177C85.8582 87.0177 86.6713 87.0177 87.5747 87.0177C88.8394 88.6439 90.1042 90.27 91.4593 91.8961C92.7241 90.27 93.9889 88.6439 95.2536 87.0177C96.2474 87.0177 97.0604 87.0177 97.9638 87.0177C97.9638 90.9024 97.9638 94.8773 97.9638 98.762C96.8798 98.762 95.886 98.762 94.7116 98.762C94.7116 96.5035 94.7116 94.245 94.7116 91.9865C93.5371 93.3416 92.4531 94.8773 91.369 96.2325C90.1945 94.8773 89.1105 93.3416 88.0264 91.9865C88.0264 94.245 88.0264 96.5035 88.0264 98.762C86.9423 98.762 85.9485 98.762 84.8645 98.762C84.8645 94.8773 84.8645 90.9024 84.8645 87.0177ZM114.406 87.0177C114.406 90.9024 114.406 94.8773 114.406 98.762C115.49 98.762 116.484 98.762 117.568 98.762C117.568 97.1359 117.568 95.6001 117.568 93.9739C119.013 95.6001 120.549 97.1359 121.994 98.762C123.35 98.762 124.705 98.762 126.15 98.762C124.253 96.7745 122.356 94.8773 120.459 92.8899C122.085 90.9927 123.711 89.0956 125.337 87.1984C124.072 87.1984 122.807 87.1984 121.543 87.1984C120.188 88.8245 118.923 90.3603 117.568 91.9865C117.568 90.3603 117.568 88.8245 117.568 87.1984C116.574 87.0177 115.49 87.1081 114.406 87.0177ZM140.063 87.0177C143.315 87.0177 146.748 87.0177 150 87.0177C150 88.0115 150 88.9149 150 89.9086C148.826 89.9086 147.651 89.9086 146.477 89.9086C146.477 92.8899 146.477 95.7808 146.477 98.762C145.393 98.762 144.399 98.762 143.315 98.762C143.315 95.7808 143.315 92.8899 143.315 89.9086C142.231 89.9086 141.056 89.9086 140.063 89.9086C140.063 88.9149 140.063 88.0115 140.063 87.0177Z" fill="#FF486F"/>
</svg>
