<svg width="170" height="170" viewBox="0 0 170 170" fill="none" xmlns="http://www.w3.org/2000/svg">
<rect x="9.15527e-05" width="170" height="170" fill="#FAFAFB"/>
<path d="M74.3154 92.1092H63.1022L77.4177 73.1664C77.7296 72.7504 77.643 72.1438 77.227 71.8319C77.071 71.7106 76.8631 71.6412 76.6551 71.6412H55.9445C54.1248 71.6412 52.6343 73.1317 52.6343 74.9515C52.6343 76.7712 54.1248 78.2617 55.9445 78.2617H65.2513L50.8839 97.2218C50.5546 97.6378 50.6412 98.227 51.0572 98.5563C51.2305 98.695 51.4385 98.7643 51.6464 98.747H74.2981C76.1178 98.6603 77.5216 97.1005 77.435 95.2634C77.3483 93.565 75.9965 92.2132 74.2981 92.1265L74.3154 92.1092ZM146.672 71.6412C144.853 71.6412 143.362 73.1317 143.362 74.9515V86.0607L125.477 71.8492C125.078 71.5199 124.471 71.5719 124.142 71.9879C124.003 72.1612 123.934 72.3692 123.934 72.5945V95.4194C123.934 97.2392 125.425 98.7296 127.244 98.7296C129.064 98.7296 130.555 97.2565 130.555 95.4194V84.3102L148.44 98.5217C148.856 98.851 149.463 98.7816 149.792 98.3657C149.931 98.1924 150 97.9844 150 97.7764V74.9515C149.983 73.1144 148.51 71.6412 146.672 71.6412ZM99.3414 92.7331C91.7678 92.7331 86.1178 88.747 86.1178 85.1768C86.1178 81.6066 91.7851 77.6205 99.3414 77.6205C106.915 77.6205 112.565 81.6066 112.565 85.1768C112.582 88.747 106.932 92.7331 99.3414 92.7331ZM99.3414 71C88.3882 71 79.4974 77.3432 79.4974 85.1768C79.4974 93.0104 88.3882 99.3536 99.3414 99.3536C110.295 99.3536 119.185 93.0104 119.185 85.1768C119.185 77.3432 110.312 71 99.3414 71ZM34.1941 92.7504C30.0173 92.7504 26.6204 89.3709 26.6204 85.1941C26.6204 81.0173 30 77.6205 34.1768 77.6205C38.3535 77.6205 41.7504 81 41.7504 85.1768V85.1941C41.7504 89.3536 38.3709 92.7331 34.1941 92.7504ZM34.1941 71C26.3605 71 20.0173 77.3432 20 85.1768C20 93.0104 26.3431 99.3536 34.1768 99.3709C42.0104 99.3709 48.3535 93.0277 48.3709 85.1941V85.1768C48.3709 77.3432 42.0277 71 34.1941 71Z" fill="#005BFF"/>
</svg>
