<svg width="170" height="170" viewBox="0 0 170 170" fill="none" xmlns="http://www.w3.org/2000/svg">
<rect x="-9.15527e-05" width="170" height="170" fill="#FAFAFB"/>
<path d="M34.1874 96.3342C28.0269 96.3342 23.0203 91.347 23.0203 85.1872C23.0203 79.0267 28.0269 74 34.1874 74C40.3472 74 45.3545 79.0267 45.3545 85.1872C45.3545 91.347 40.3472 96.3342 34.1874 96.3342Z" fill="#FF5226"/>
<path d="M32.458 75.5112L20 94.9494H25.7108L32.9077 83.7451L32.732 83.6655L30.7368 91.6834L34.9609 92.4279L39.3027 86.9709L39.0674 86.854L37.6008 93.0525L46.8047 91.2985L44.9272 88.206L41.6098 88.9654L42.0014 89.4158L43.5462 82.9426L39.9474 80.5364L35.2349 86.4624L35.4694 86.5801L37.405 78.8152L32.458 75.5112Z" fill="#FFDD00"/>
<path d="M32.458 75.5112L20 94.9494H25.7108L32.9077 83.7451L32.732 83.6655L30.7368 91.6834L34.9609 92.4279L39.3027 86.9709L39.0674 86.854L37.6008 93.0525L41.3009 92.3475L43.5462 82.9426L39.9474 80.5364L35.2349 86.4624L35.4694 86.5801L37.405 78.8152L32.458 75.5112Z" fill="#FFDD00"/>
<path d="M49.6352 92.2023L56.5789 78.1541H61.8669L62.9479 86.7073L68.3052 78.1533H73.5477V92.2023H68.4205V84.6608L63.6604 92.2023H58.5332L57.5453 84.5915L53.7738 92.2023H49.6352ZM89.2978 89.4202C89.2978 89.8959 89.306 90.3634 89.3209 90.8228C89.3365 91.2829 89.3671 91.7348 89.4132 92.1792H84.653C84.5401 91.9584 84.4478 91.7277 84.3776 91.4898C84.2838 91.175 84.2222 90.8515 84.1937 90.5242C83.7031 91.1064 83.0822 91.5888 82.331 91.9722C81.5955 92.3408 80.545 92.5246 79.1812 92.5246C77.8017 92.5246 76.6976 92.2023 75.8697 91.5591C75.0575 90.9151 74.6518 90.0567 74.6518 88.9832C74.6518 87.9871 74.9347 87.221 75.502 86.6842C76.0849 86.1326 76.9887 85.7492 78.2156 85.5348C79.4417 85.304 81.0126 85.1893 82.9288 85.1893H84.1245V84.9362C84.1245 84.4464 83.9175 84.0704 83.5036 83.8098C83.0896 83.5493 82.3154 83.419 81.1816 83.419C80.0626 83.419 79.0204 83.5649 78.054 83.856C77.1041 84.1314 76.3298 84.4076 75.732 84.6838V81.6025C76.4065 81.3568 77.311 81.1119 78.4456 80.8669C79.5951 80.6064 80.9054 80.4761 82.3772 80.4761C83.8639 80.4761 85.1206 80.6138 86.1479 80.89C87.1753 81.1506 87.957 81.6025 88.493 82.2464C89.0298 82.8748 89.2978 83.7488 89.2978 84.8677V89.4202ZM90.8612 80.8215H95.6214L95.8968 82.775C96.4798 82.0089 97.1766 81.4498 97.9895 81.097C98.8018 80.7441 99.7368 80.5684 100.795 80.5684C101.99 80.5684 103.063 80.7828 104.014 81.2116C104.943 81.6232 105.728 82.3042 106.267 83.1666C106.819 84.0399 107.094 85.1439 107.094 86.4773C107.094 87.8106 106.819 88.9221 106.267 89.811C105.731 90.685 104.979 91.3446 104.014 91.7884C103.048 92.2336 101.944 92.4554 100.702 92.4554C99.8135 92.4611 98.9317 92.2971 98.1042 91.9722C97.3069 91.6357 96.6175 91.1064 96.0353 90.3865V95.169H90.8612V80.8208V80.8215ZM122.086 86.4773C122.086 85.3427 122.393 84.331 123.006 83.4421C123.634 82.5532 124.523 81.8563 125.673 81.3501C126.838 80.829 128.21 80.5684 129.789 80.5684C131.429 80.5684 132.801 80.8513 133.904 81.4186C135.023 81.9859 135.805 82.7906 136.25 83.8329C136.71 84.8752 136.771 86.1095 136.433 87.5352H127.352C127.535 88.194 127.942 88.6921 128.57 89.0293C129.214 89.3517 130.164 89.5125 131.421 89.5125C132.295 89.5125 133.107 89.4358 133.858 89.2817C134.565 89.1256 135.263 88.934 135.951 88.7077V91.4437C135.291 91.7504 134.556 91.9953 133.744 92.1792C132.946 92.3631 131.897 92.4554 130.594 92.4554C127.727 92.4554 125.589 91.9268 124.179 90.8689C122.784 89.7961 122.086 88.3325 122.086 86.4773ZM136.87 80.8208H150V83.7644H145.907V92.1792H140.734V83.7644H136.87V80.8208ZM108.083 80.8208H113.256V85.971L118.154 80.8208H122.615L118.062 85.5571L123.558 92.1792H117.303L113.256 87.1667V92.1792H108.083V80.8208ZM129.812 83.1435C129.106 83.1435 128.547 83.3505 128.133 83.7644C127.719 84.1627 127.451 84.6764 127.329 85.3047H131.881C131.866 84.6764 131.697 84.1627 131.375 83.7637C131.053 83.3505 130.532 83.1435 129.812 83.1435ZM101.806 86.4773C101.806 85.5571 101.553 84.829 101.047 84.293C100.557 83.7413 99.8515 83.4651 98.9321 83.4651C98.0893 83.4651 97.3835 83.7257 96.817 84.2468C96.2497 84.7531 95.9661 85.4961 95.9661 86.4773C95.9661 87.4585 96.2415 88.2171 96.7939 88.7539C97.3612 89.275 98.0737 89.5356 98.9321 89.5356C99.8827 89.5356 100.595 89.2594 101.07 88.7077C101.561 88.1561 101.806 87.4123 101.806 86.4773ZM84.1245 87.2813H82.9519C81.833 87.2813 81.0282 87.3744 80.5376 87.5583C80.0626 87.7421 79.8251 88.0943 79.8251 88.6154C79.8251 89.0599 79.9785 89.3897 80.2845 89.6041C80.6068 89.8036 80.9895 89.9033 81.4347 89.9033C82.1092 89.9033 82.6608 89.7805 83.0896 89.5356C83.5341 89.275 83.8795 88.9757 84.1245 88.6385V87.2813Z" fill="black"/>
</svg>
