<svg width="170" height="170" viewBox="0 0 170 170" fill="none" xmlns="http://www.w3.org/2000/svg">
<rect width="170" height="170" fill="#FAFAFB"/>
<path d="M32.3223 96.6446C39.1277 96.6446 44.6446 91.1277 44.6446 84.3223C44.6446 77.5169 39.1277 72 32.3223 72C25.5169 72 20 77.5169 20 84.3223C20 91.1277 25.5169 96.6446 32.3223 96.6446Z" fill="#FC3F1D"/>
<path d="M33.9652 78.9827H32.8357C30.7306 78.9827 29.6524 80.0609 29.6524 81.6012C29.6524 83.3468 30.4226 84.1683 31.9628 85.2465L33.2464 86.1193L29.5497 91.6644H26.7772L30.1145 86.7355C28.2148 85.3492 27.1366 84.0143 27.1366 81.8065C27.1366 78.9827 29.0876 77.083 32.8357 77.083H36.5324V91.7157H33.9652V78.9827Z" fill="white"/>
<path d="M53.1161 97.3635V93.5128H62.4092V97.3635H65.4384V90.997H63.6927V74.978H52.9108L52.654 82.6281C52.5 86.9922 52.192 89.5594 51.3191 90.997H50.1382V97.3635H53.1161ZM55.4779 83.0388L55.6833 77.4938H60.5095V90.997H54.3484C54.9131 89.7134 55.3239 87.403 55.4779 83.0388ZM72.3183 79.8043C68.827 79.8043 66.4139 82.2687 66.4139 86.7869C66.4139 91.2537 68.827 93.7695 72.3183 93.7695C75.8097 93.7695 78.2741 91.305 78.2741 86.7869C78.2741 82.3201 75.8097 79.8043 72.3183 79.8043ZM72.3183 91.2537C70.5727 91.2537 69.6999 89.8674 69.6999 86.7869C69.6999 83.655 70.5727 82.3201 72.3183 82.3201C74.064 82.3201 74.9882 83.655 74.9882 86.7869C74.9882 89.9188 74.1153 91.2537 72.3183 91.2537ZM86.1809 93.7695C87.6698 93.7695 88.6967 93.5128 89.4668 92.948V90.3809C88.6454 90.9456 87.7212 91.305 86.3863 91.305C84.1272 91.305 83.203 89.5594 83.203 86.7869C83.203 83.8603 84.3326 82.3714 86.4376 82.3714C87.6698 82.3714 88.8507 82.7821 89.5182 83.1929V80.5231C88.8507 80.1637 87.6698 79.9069 86.0782 79.9069C82.0221 79.9069 79.9171 82.8335 79.9171 86.8896C79.8657 91.305 81.9194 93.7695 86.1809 93.7695ZM101.43 82.5768V80.061H90.8018V82.5768H94.5498V93.5128H97.733V82.5768H101.43ZM112.52 84.3738C112.52 81.1392 110.877 79.9069 107.488 79.9069C105.383 79.9069 103.74 80.5744 102.765 81.1392V83.809C103.637 83.1929 105.486 82.4741 107.129 82.4741C108.669 82.4741 109.337 82.9875 109.337 84.4251V85.1952H108.823C103.946 85.1952 101.789 86.7869 101.789 89.508C101.789 92.2292 103.432 93.7695 105.897 93.7695C107.745 93.7695 108.566 93.1534 109.182 92.5373H109.337C109.388 92.8967 109.491 93.3588 109.593 93.6155H112.674C112.571 92.5373 112.52 91.4077 112.52 90.3295V84.3738ZM109.388 90.3295C108.977 90.8943 108.258 91.4077 107.129 91.4077C105.794 91.4077 105.126 90.5862 105.126 89.4054C105.126 87.8137 106.205 87.249 108.926 87.249H109.388V90.3295ZM120.375 93.5128C123.507 93.5128 125.407 92.1779 125.407 89.6107C125.407 87.8651 124.329 86.8382 122.532 86.5302C123.969 86.1194 124.893 85.0926 124.893 83.5009C124.893 81.1905 123.353 80.061 120.427 80.061H115.087V93.5128H120.375ZM119.964 82.4741C121.094 82.4741 121.761 82.9362 121.761 83.963C121.761 84.8872 121.094 85.452 119.862 85.452H118.27V82.4741H119.964ZM120.067 87.8137C121.402 87.8137 122.121 88.2758 122.121 89.4054C122.121 90.6376 121.299 91.0997 120.067 91.0997H118.322V87.8137H120.067ZM135.419 93.5128H139.013L133.93 86.2734L138.397 80.061H135.213L130.746 86.2734V80.061H127.563V93.5128H130.746V86.8896L135.419 93.5128ZM149.846 84.3738C149.846 81.1392 148.203 79.9069 144.814 79.9069C142.709 79.9069 141.066 80.5744 140.091 81.1392V83.809C140.964 83.1929 142.812 82.4741 144.455 82.4741C145.995 82.4741 146.663 82.9875 146.663 84.4251V85.1952H146.149C141.272 85.1952 139.115 86.7869 139.115 89.508C139.115 92.2292 140.758 93.7695 143.223 93.7695C145.071 93.7695 145.893 93.1534 146.509 92.5373H146.663C146.714 92.8967 146.817 93.3588 146.919 93.6155H150C149.897 92.5373 149.846 91.4077 149.846 90.3295V84.3738ZM146.663 90.3295C146.252 90.8943 145.533 91.4077 144.404 91.4077C143.069 91.4077 142.401 90.5862 142.401 89.4054C142.401 87.8137 143.479 87.249 146.201 87.249H146.663V90.3295Z" fill="black"/>
</svg>
