<svg width="170" height="170" viewBox="0 0 170 170" fill="none" xmlns="http://www.w3.org/2000/svg">
<rect x="-3.05176e-05" width="170" height="170" fill="#FAFAFB"/>
<mask id="mask0_2077_96" style="mask-type:luminance" maskUnits="userSpaceOnUse" x="20" y="69" width="130" height="34">
<path d="M150 69H20V102.066H150V69Z" fill="white"/>
</mask>
<g mask="url(#mask0_2077_96)">
<path d="M69.6924 69.7773L58.4768 99.0804H64.5042L66.8317 92.9603H78.7396L81.0561 99.0804H87.0377L75.8637 69.7773H69.6924ZM68.8741 87.5823L72.7982 77.271L76.7001 87.5823H68.8741Z" fill="black"/>
<path d="M139.333 78.124C137.224 78.124 135.162 78.7493 133.409 79.9209C131.656 81.0924 130.289 82.7576 129.483 84.7056C128.675 86.6538 128.465 88.7975 128.875 90.8657C129.287 92.9338 130.302 94.8336 131.794 96.3246C133.284 97.8157 135.184 98.8312 137.252 99.2426C139.321 99.6539 141.465 99.4428 143.413 98.6358C145.36 97.8289 147.026 96.4624 148.197 94.709C149.369 92.9558 149.994 90.8944 149.994 88.7858C149.994 85.958 148.871 83.2462 146.872 81.2468C144.872 79.2473 142.16 78.124 139.333 78.124ZM139.333 93.9809C138.305 93.9809 137.301 93.6763 136.447 93.1056C135.593 92.5349 134.927 91.7237 134.534 90.7747C134.141 89.8257 134.038 88.7813 134.239 87.7739C134.439 86.7664 134.933 85.8409 135.66 85.1146C136.387 84.3882 137.311 83.8935 138.319 83.6931C139.327 83.4927 140.371 83.5956 141.32 83.9887C142.269 84.3818 143.081 85.0475 143.651 85.9016C144.221 86.7557 144.526 87.7599 144.526 88.7872C144.528 89.4694 144.394 90.1454 144.133 90.776C143.872 91.4066 143.49 91.9796 143.007 92.462C142.525 92.9446 141.952 93.3272 141.321 93.5878C140.691 93.8484 140.015 93.9819 139.333 93.9809Z" fill="black"/>
<path d="M94.2198 91.5231L89.3514 78.4937H83.6024L91.4381 99.0804H97.1414L104.837 78.4937H99.0882L94.2198 91.5231Z" fill="black"/>
<path d="M122.919 73.0229H117.449V78.4937H114.25V83.4091H117.449V92.1725C117.449 97.1336 120.184 99.2659 124.032 99.2659C125.337 99.2848 126.632 99.032 127.835 98.5237V93.4242C127.18 93.6654 126.49 93.7932 125.793 93.8022C124.132 93.8022 122.919 93.1528 122.919 90.9276V83.4091H127.835V78.4937H122.919V73.0229Z" fill="black"/>
<path d="M109.335 77.0106C111.537 77.0106 113.322 75.2253 113.322 73.0229C113.322 70.8205 111.537 69.0352 109.335 69.0352C107.132 69.0352 105.347 70.8205 105.347 73.0229C105.347 75.2253 107.132 77.0106 109.335 77.0106Z" fill="black"/>
<path d="M112.07 78.4937H106.6V99.0804H112.07V78.4937Z" fill="black"/>
<path d="M30.6997 102.002C36.5895 102.002 41.3642 97.2271 41.3642 91.3373C41.3642 85.4474 36.5895 80.6729 30.6997 80.6729C24.81 80.6729 20.0353 85.4474 20.0353 91.3373C20.0353 97.2271 24.81 102.002 30.6997 102.002Z" fill="#04E061"/>
<path d="M49.1998 100.656C52.7588 100.656 55.6439 97.7711 55.6439 94.2121C55.6439 90.6531 52.7588 87.7681 49.1998 87.7681C45.6409 87.7681 42.7557 90.6531 42.7557 94.2121C42.7557 97.7711 45.6409 100.656 49.1998 100.656Z" fill="#FF4053"/>
<path d="M32.7393 79.2826C34.9417 79.2826 36.7271 77.4972 36.7271 75.2949C36.7271 73.0925 34.9417 71.3071 32.7393 71.3071C30.5369 71.3071 28.7516 73.0925 28.7516 75.2949C28.7516 77.4972 30.5369 79.2826 32.7393 79.2826Z" fill="#965EEB"/>
<path d="M46.6963 86.3763C51.4849 86.3763 55.3669 82.4944 55.3669 77.7058C55.3669 72.9171 51.4849 69.0352 46.6963 69.0352C41.9077 69.0352 38.0258 72.9171 38.0258 77.7058C38.0258 82.4944 41.9077 86.3763 46.6963 86.3763Z" fill="#00AAFF"/>
</g>
</svg>
