<svg width="170" height="170" viewBox="0 0 170 170" fill="none" xmlns="http://www.w3.org/2000/svg">
<rect x="-3.05176e-05" width="170" height="170" fill="url(#paint0_linear_2077_89)"/>
<path d="M141.417 85.2336C141.417 84.4184 142.529 83.7607 143.985 83.7607C145.505 83.7607 147.055 84.4818 148.104 85.6569L150 83.338C148.199 81.7389 146.366 80.9085 144.079 80.9085C141.228 80.9085 138.284 82.225 138.284 85.2336C138.284 88.9325 141.479 89.1988 144.079 89.4186C145.536 89.5273 146.82 89.6378 146.82 90.5938C146.82 91.6277 145.348 92.0975 144.048 92.0975C142.544 92.0975 140.916 91.4556 139.725 90.0292L137.705 92.1766C139.318 94.1513 141.652 95.0131 143.938 95.0131C146.805 95.0131 149.953 93.6495 149.953 90.531C149.953 87.0042 146.726 86.66 144.251 86.4094C142.701 86.2524 141.417 86.1117 141.417 85.2336ZM127.007 86.1117C127.524 84.8109 128.636 84.0584 130.28 84.0584C131.94 84.0584 132.927 84.8574 133.351 86.1117H127.007ZM130.437 80.9085C126.522 80.9085 123.373 83.9642 123.373 87.9765C123.373 91.7533 126.161 95.0131 130.265 95.0131C132.739 95.0131 134.744 93.8216 136.17 91.7847L134.008 89.9512C133.241 91.1264 131.863 91.8161 130.218 91.8161C128.542 91.8161 126.803 90.5624 126.662 88.7127H136.89V87.616C136.859 83.745 134.227 80.9085 130.437 80.9085ZM90.3719 80.9085C86.4563 80.9085 83.3082 83.9642 83.3082 87.9765C83.3082 91.7533 86.0963 95.0131 90.1998 95.0131C92.6746 95.0131 94.6795 93.8216 96.1047 91.7847L93.9434 89.9512C93.1758 91.1264 91.7977 91.8161 90.1527 91.8161C88.4769 91.8161 86.7383 90.5624 86.5976 88.7127H96.8252V87.616C96.8095 83.745 94.1626 80.9085 90.3719 80.9085ZM118.643 94.527H121.776V81.394H118.643V94.5276V94.527ZM120.209 75C118.941 75 117.86 76.0659 117.86 77.3975C117.86 78.714 118.91 79.6862 120.272 79.6862C121.604 79.6862 122.575 78.746 122.575 77.4452C122.559 76.113 121.494 75 120.209 75ZM74.8035 80.8928C73.3312 80.8928 72.0002 81.3318 70.8721 82.0994V75.157H67.7397V87.9765C67.7397 91.8783 70.9192 95.0131 74.7878 95.0131C78.6878 95.0131 81.883 91.8946 81.883 87.9451C81.8673 84.0113 78.7349 80.8928 74.8035 80.8928ZM58.5146 81.112C55.0217 81.4726 52.1707 84.4818 52.1707 88.0707C52.1707 91.8632 55.4136 95.0445 59.2037 95.0445C62.978 95.0445 66.236 91.8632 66.236 88.0707C66.236 86.4565 65.6563 84.9673 64.7166 83.7921L57.7628 75.1727H53.7058L58.5146 81.112ZM34.2374 88.8697L31.3707 81.394H29.1792L26.2968 88.8697L23.415 81.394H20L25.0431 94.559H27.2358L30.2589 86.7228L33.3135 94.5584H35.5056L40.5336 81.394H37.1349L34.2374 88.8697ZM101.602 84.3876V81.394H98.4696V94.5276H101.602V88.9802C101.602 86.2844 104.484 84.6388 107.35 84.6388V81.3947H107.037C104.609 81.3947 102.855 82.2727 101.602 84.3882V84.3876ZM111.548 84.3876V81.394H108.416V94.5276H111.548V88.9802C111.548 86.2844 114.43 84.6388 117.296 84.6388V81.3947H116.983C114.571 81.3947 112.817 82.2727 111.548 84.3882V84.3876ZM47.4253 94.527H50.5571V75.1727H47.4247V94.5276L47.4253 94.527ZM59.2194 91.8783C57.0574 91.8783 55.3037 90.1391 55.3037 87.9765C55.3037 85.7983 57.0574 84.0584 59.2037 84.0584C61.3807 84.0584 63.1507 85.7977 63.1507 87.9765C63.1507 90.1391 61.3807 91.8783 59.2194 91.8783ZM74.7878 91.8783C74.2731 91.8793 73.7633 91.7787 73.2877 91.5822C72.812 91.3856 72.3799 91.0971 72.0161 90.7331C71.6522 90.3691 71.3639 89.9368 71.1676 89.461C70.9713 88.9853 70.8709 88.4755 70.8721 87.9608C70.8721 85.814 72.5479 84.0584 74.8035 84.0584C77.059 84.0584 78.7349 85.814 78.7349 87.9451C78.7349 90.1705 76.9491 91.8783 74.7878 91.8783ZM41.9902 94.527H45.1226V81.394H41.9902V94.5276V94.527ZM43.5253 75C42.2565 75 41.1913 76.0659 41.1913 77.4138C41.1913 78.7774 42.3036 79.7019 43.5253 79.7019C44.8877 79.7019 45.9216 78.5733 45.9216 77.351C45.9059 76.113 44.8249 75 43.5253 75ZM86.9418 86.1117C87.4744 84.8109 88.5711 84.0584 90.1998 84.0584C91.8756 84.0584 92.8938 84.8574 93.3165 86.1117H86.9418Z" fill="white"/>
<defs>
<linearGradient id="paint0_linear_2077_89" x1="-3.05176e-05" y1="85" x2="170" y2="85" gradientUnits="userSpaceOnUse">
<stop stop-color="#E23AC2"/>
<stop offset="1" stop-color="#781BED"/>
</linearGradient>
</defs>
</svg>
