<svg width="64" height="65" viewBox="0 0 64 65" fill="none" xmlns="http://www.w3.org/2000/svg">
<g id="Group 796">
<path id="Vector" d="M42.276 61.7747C38.772 58.2707 38.668 54.8787 38.668 54.7107C38.664 53.9787 38.068 53.3867 37.336 53.3867H26.616C25.88 53.3867 25.284 53.9907 25.284 54.7267C25.284 54.8707 25.236 58.2667 21.728 61.7747C21.348 62.1547 21.232 62.7307 21.44 63.2267C21.644 63.7267 22.132 64.0507 22.672 64.0507H41.34C41.88 64.0507 42.368 63.7267 42.572 63.2267C42.772 62.7307 42.656 62.1587 42.276 61.7747Z" fill="#3DA0FE" fill-opacity="0.5"/>
<path id="Vector_2" d="M60.88 11.0107C60.532 12.0227 59.972 12.9587 59.172 13.7587L56.904 16.0507H58.664V45.3828H5.332V16.0507H15.252C16.212 14.0227 17.52 12.2107 19.12 10.7188H4.668C2.108 10.7188 0 12.8267 0 15.3867V51.3867C0 53.9468 2.108 56.0547 4.668 56.0547H59.336C61.896 56.0547 64.004 53.9468 64.004 51.3867V15.3867C64 13.3587 62.692 11.6267 60.88 11.0107Z" fill="#3DA0FE"/>
<path id="Vector_3" d="M55.792 7.83905C55.476 7.09505 54.744 6.61105 53.936 6.61905L49.268 6.65505L49.232 1.98705C49.228 1.17905 48.732 0.451046 47.984 0.147046C47.236 -0.156954 46.376 0.019048 45.808 0.595048L39.192 7.31105C38.82 7.68705 38.612 8.19905 38.616 8.73105L38.66 14.595C38.636 14.619 38.604 14.627 38.58 14.651L30.64 22.711C29.864 23.499 29.872 24.7631 30.66 25.539C31.052 25.927 31.568 26.119 32.08 26.115C32.592 26.111 33.1 25.911 33.488 25.519L41.428 17.459C41.452 17.435 41.46 17.403 41.48 17.379L47.344 17.335C47.872 17.331 48.38 17.115 48.752 16.739L55.368 10.023C55.94 9.44705 56.108 8.58305 55.792 7.83905Z" fill="#E139D3"/>
<path id="Vector_4" d="M45.092 21.3555H43.2L40.028 24.5835C39.816 28.7715 36.376 32.0755 32.136 32.1035C27.708 32.1555 24.108 28.5835 24.056 24.1835C24.028 19.9155 27.336 16.4235 31.524 16.1315L34.644 12.9595V11.0115C33.764 10.8515 32.884 10.7715 31.976 10.7715C24.616 10.8515 18.668 16.8515 18.724 24.2115C18.804 31.5715 24.832 37.4915 32.164 37.4395C39.524 37.3875 45.472 31.3595 45.392 24.0275C45.384 23.1155 45.276 22.2075 45.092 21.3555Z" fill="#E139D3"/>
</g>
</svg>
