<svg width="90" height="75" viewBox="0 0 90 75" fill="none" xmlns="http://www.w3.org/2000/svg">
<g id="&#208;&#164;&#208;&#184;&#208;&#187;&#209;&#140;&#209;&#130;&#209;&#128;&#208;&#176;&#209;&#134;&#208;&#184;&#209;&#143;">
<g id="Group 794">
<path id="Vector" fill-rule="evenodd" clip-rule="evenodd" d="M46.2206 35.9146L52.1311 27.0488L56.9722 30.2764L51.0617 39.1421L46.2206 35.9146Z" fill="#3DA0FE"/>
<g id="Group">
<path id="Vector_2" fill-rule="evenodd" clip-rule="evenodd" d="M63.9517 35.9146L69.8622 27.0488L74.7033 30.2764L68.7928 39.1421L63.9517 35.9146Z" fill="#3DA0FE"/>
<path id="Vector_3" fill-rule="evenodd" clip-rule="evenodd" d="M33.9109 29.5067C33.9109 27.9002 35.2134 26.5977 36.82 26.5977H87.0596C88.6662 26.5977 89.9687 27.9002 89.9687 29.5067V64.9701C89.9687 66.5767 88.6662 67.8792 87.0596 67.8792H44.2083C42.6017 67.8792 41.2992 66.5767 41.2992 64.9701C41.2992 63.3635 42.6017 62.061 44.2083 62.061H84.1505V32.4158H39.7291V42.8056C39.7291 44.4122 38.4266 45.7147 36.82 45.7147C35.2134 45.7147 33.9109 44.4122 33.9109 42.8056V29.5067Z" fill="#3DA0FE"/>
<path id="Vector_4" fill-rule="evenodd" clip-rule="evenodd" d="M87.0596 40.4373H36.82V34.6191H87.0596V40.4373Z" fill="#3DA0FE"/>
</g>
<path id="Vector_5" fill-rule="evenodd" clip-rule="evenodd" d="M31.0543 16.7754C30.6385 15.2235 31.5595 13.6285 33.1114 13.2127L37.8509 11.9424L53.1554 24.3549L37.2396 28.6196C35.6877 29.0354 34.0927 28.1142 33.6769 26.5623L31.0543 16.7754Z" fill="#3DA0FE"/>
<g id="Group_2">
<path id="Vector_6" fill-rule="evenodd" clip-rule="evenodd" d="M60.0981 22.4938L70.5926 19.6821L55.2876 7.26953L44.7936 10.0814L60.0981 22.4938Z" fill="#3DA0FE"/>
<path id="Vector_7" fill-rule="evenodd" clip-rule="evenodd" d="M62.2307 5.40956L77.5352 17.8218L86.1752 15.5069C87.7271 15.0911 88.6479 13.4958 88.2321 11.9439L85.6097 2.15689C85.1939 0.604987 83.5989 -0.315993 82.047 0.0998518L62.2307 5.40956Z" fill="#3DA0FE"/>
</g>
</g>
<g id="Group 663">
<path id="Vector_8" d="M8.41014 57.8086C8.67085 57.8272 8.8757 57.8458 9.11778 57.9576C9.35987 58.0693 9.60196 58.2741 9.73232 58.5162C10.0303 59.019 10.1606 59.6522 10.3468 60.2109C10.682 61.2537 11.0359 62.2965 11.3897 63.3394C12.4139 63.656 13.4195 64.0098 14.4251 64.345C14.9652 64.5312 15.5797 64.6616 16.0825 64.9223C16.4363 65.1085 16.7156 65.4065 16.846 65.7975C16.9577 66.17 16.9391 66.561 16.7529 66.9149C16.6225 67.1756 16.4363 67.3804 16.1756 67.5108C15.6542 67.8087 14.9652 67.9763 14.3879 68.1625C13.3823 68.4977 12.3767 68.8329 11.3711 69.1495C11.0359 70.1551 10.7007 71.1607 10.3655 72.1849C10.1792 72.7622 10.0117 73.563 9.65783 74.0472C9.35987 74.4568 9.00605 74.5872 8.50325 74.6803C8.27979 74.6803 8.01908 74.6431 7.81423 74.55C7.55352 74.4382 7.33005 74.2148 7.18108 73.9727C6.92036 73.5257 6.79001 72.9298 6.62241 72.427C6.26859 71.3283 5.91477 70.2482 5.5237 69.1681C4.53672 68.8516 3.54975 68.5164 2.56277 68.1812C2.0041 67.9949 1.35233 67.846 0.830905 67.5852C0.439839 67.3804 0.179128 67.0452 0.0487729 66.6355C-0.0629603 66.3003 0.0301508 65.8534 0.197751 65.5368C0.309484 65.332 0.495706 65.1271 0.70055 65.0154C1.25922 64.6988 1.98548 64.5312 2.60001 64.3264C3.56837 64.0098 4.53672 63.656 5.5237 63.358C5.82165 62.4083 6.15686 61.4585 6.47343 60.5088C6.60379 60.0805 6.75277 59.6708 6.88312 59.2425C6.97623 58.9632 7.06934 58.628 7.25556 58.4045C7.59076 58.0134 7.94459 57.8645 8.41014 57.8086Z" fill="#E139D3"/>
<path id="Vector_9" d="M9.82504 33.0035C10.0857 32.9849 10.4209 33.0408 10.6444 33.1525C10.8865 33.2829 11.11 33.4877 11.2403 33.7484C11.5569 34.3257 11.7431 35.1265 11.948 35.7596C12.3763 37.0445 12.8232 38.3295 13.2329 39.633C14.5551 40.0613 15.8586 40.5083 17.1622 40.9366C17.7953 41.1414 18.5402 41.309 19.1175 41.6442C19.49 41.8491 19.7134 42.1843 19.8252 42.594C19.9183 42.9664 19.8252 43.3761 19.6389 43.6927C19.49 43.9348 19.2851 44.1024 19.0244 44.2327C18.7264 44.3817 18.3912 44.4748 18.056 44.5865C17.516 44.7728 16.976 44.9404 16.4359 45.1266C15.3745 45.4804 14.2944 45.9087 13.2329 46.1694C12.7487 47.5661 12.3018 48.9628 11.8362 50.3594C11.65 50.8995 11.501 51.5326 11.2403 52.0354C10.9982 52.4823 10.663 52.6686 10.1975 52.8175C9.91815 52.8548 9.62019 52.8175 9.35948 52.7058C9.08015 52.5755 8.85668 52.4079 8.7077 52.1472C8.39113 51.6071 8.22353 50.8436 8.01868 50.2291C7.57175 48.8883 7.14344 47.5288 6.65926 46.188C5.48606 45.8342 4.33149 45.4059 3.17691 45.0335C2.43202 44.7914 1.63127 44.5865 0.923625 44.27C0.513937 44.0837 0.253226 43.8044 0.104249 43.3761C-0.0261069 43.0037 0.0297597 42.5753 0.197359 42.2215C0.327715 41.9608 0.551181 41.756 0.79327 41.6256C1.37056 41.309 2.11545 41.1601 2.72998 40.9366C4.03353 40.5083 5.33709 40.0613 6.65926 39.633C6.84548 38.8323 7.19931 38.0129 7.46002 37.2308C7.70211 36.5045 7.94419 35.7596 8.18628 35.0147C8.33526 34.5864 8.46562 34.0091 8.7077 33.6367C9.00566 33.2456 9.35948 33.0966 9.82504 33.0035Z" fill="#E139D3"/>
<path id="Vector_10" d="M29.1922 41.942C29.4715 41.9233 29.8067 41.9792 30.0488 42.1096C30.3095 42.2585 30.5143 42.482 30.6447 42.7427C30.8309 43.1152 30.924 43.5435 31.0544 43.9345C31.2778 44.6422 31.5013 45.3312 31.7248 46.0389C32.3579 48.0128 33.0656 49.9868 33.6429 51.998C35.6168 52.5939 37.5908 53.2643 39.5461 53.8974C40.2724 54.1209 40.9986 54.363 41.7249 54.6051C42.1346 54.7354 42.5815 54.8472 42.954 55.052C43.3078 55.2568 43.5499 55.5734 43.6616 55.9831C43.7733 56.3556 43.6802 56.7652 43.494 57.1004C43.345 57.3612 43.1029 57.566 42.8236 57.6964C42.4325 57.8826 42.0042 57.9943 41.5945 58.106C40.9428 58.3109 40.2724 58.5343 39.6206 58.7392C37.628 59.391 35.6354 60.1172 33.6242 60.6573C32.898 62.8547 32.2276 65.0707 31.5013 67.2682C31.3337 67.7896 31.1661 68.311 30.9985 68.8138C30.8868 69.1862 30.775 69.5959 30.5888 69.9498C30.3467 70.3967 30.0115 70.5829 29.546 70.7319C29.2294 70.7691 28.9128 70.7319 28.6335 70.5829C28.3914 70.4526 28.1493 70.2663 28.019 70.0056C27.8514 69.689 27.7583 69.3352 27.6465 68.9814C27.4975 68.4786 27.3299 67.9758 27.1623 67.473C26.4175 65.2011 25.7098 62.9292 24.9649 60.6573C22.6558 59.8379 20.2721 59.1675 17.9444 58.404C17.1995 58.1619 16.3428 57.9757 15.6352 57.6219C15.2814 57.4356 15.0393 57.1004 14.9276 56.7094C14.8158 56.3369 14.8903 55.9272 15.0765 55.592C15.2441 55.2941 15.5048 55.1079 15.8028 54.9589C16.1752 54.7913 16.6222 54.6796 17.0319 54.5492C17.7023 54.3444 18.3913 54.1209 19.0617 53.8974C21.017 53.2643 22.9723 52.5939 24.9649 51.998C25.4491 50.4151 25.9891 48.8508 26.4919 47.2679C26.7899 46.3182 27.1065 45.3685 27.4044 44.4187C27.5907 43.8414 27.7396 43.0221 28.0935 42.5379C28.3914 42.1654 28.7266 42.0165 29.1922 41.942Z" fill="#E139D3"/>
</g>
</g>
</svg>
