<svg width="64" height="64" viewBox="0 0 64 64" fill="none" xmlns="http://www.w3.org/2000/svg">
<g id="Group 797">
<path id="Vector" d="M2.28466 53.5488C2.08466 53.5488 1.96866 53.5448 1.94466 53.5448C0.840659 53.5168 -0.0273412 52.5968 0.00065879 51.4928C0.0286588 50.3888 0.956657 49.4928 2.05266 49.5488C2.16466 49.5488 13.2687 49.7928 25.4327 45.2488C41.5207 39.2448 51.8007 28.1168 55.9807 12.1848C56.2607 11.1168 57.3527 10.4808 58.4247 10.7568C59.4927 11.0368 60.1327 12.1288 59.8527 13.2008C49.5327 52.5328 6.55666 53.5488 2.28466 53.5488Z" fill="#E139D3"/>
<path id="Vector_2" d="M62.0006 21.5969C61.8286 21.5969 61.6526 21.5729 61.4806 21.5289L50.5526 18.6009C49.7726 18.3929 49.1926 17.7329 49.0886 16.9289C48.9846 16.1289 49.3726 15.3409 50.0726 14.9369L57.0006 10.9369C57.9566 10.3849 59.1806 10.7089 59.7326 11.6689L63.7326 18.5969C64.1366 19.2969 64.0806 20.1729 63.5886 20.8129C63.2006 21.3129 62.6126 21.5969 62.0006 21.5969Z" fill="#E139D3"/>
<path id="Vector_3" d="M58.0006 64.001C56.5286 64.001 55.3326 62.805 55.3326 61.333V29.333C55.3326 27.861 56.5286 26.665 58.0006 26.665C59.4726 26.665 60.6686 27.861 60.6686 29.333V61.333C60.6686 62.809 59.4726 64.001 58.0006 64.001Z" fill="#3DA0FE"/>
<path id="Vector_4" d="M42.0006 64.001C40.5286 64.001 39.3326 62.805 39.3326 61.333V48.001C39.3326 46.529 40.5286 45.333 42.0006 45.333C43.4726 45.333 44.6686 46.529 44.6686 48.001V61.333C44.6686 62.809 43.4726 64.001 42.0006 64.001Z" fill="#3DA0FE"/>
<path id="Vector_5" d="M26.0006 64.001C24.5286 64.001 23.3326 62.805 23.3326 61.333V56.001C23.3326 54.529 24.5286 53.333 26.0006 53.333C27.4726 53.333 28.6686 54.529 28.6686 56.001V61.333C28.6686 62.809 27.4726 64.001 26.0006 64.001Z" fill="#3DA0FE"/>
<path id="Vector_6" d="M10.0006 64.001C8.52864 64.001 7.33264 62.805 7.33264 61.333V60.001C7.33264 58.529 8.52864 57.333 10.0006 57.333C11.4726 57.333 12.6686 58.529 12.6686 60.001V61.333C12.6686 62.809 11.4726 64.001 10.0006 64.001Z" fill="#3DA0FE"/>
<path id="Vector_7" d="M39.6086 0.392676C39.3526 0.136676 38.9726 -0.0113222 38.6406 0.000677775C31.1006 0.140678 22.3086 4.54068 16.7206 10.9327C10.6806 11.1487 5.64058 12.9687 2.49258 16.1127C2.15258 16.4527 2.02058 16.9527 2.15258 17.4167C2.28458 17.8807 2.65658 18.2367 3.12458 18.3527L8.80458 19.7127L8.76859 19.7527C8.29659 20.2807 8.31659 21.0847 8.81659 21.5887L18.4086 31.1807C18.6686 31.4407 19.0086 31.5727 19.3526 31.5727C19.6726 31.5727 19.9926 31.4607 20.2446 31.2287L20.2846 31.1927L21.6446 36.8727C21.7566 37.3447 22.1166 37.7167 22.5806 37.8447C22.7006 37.8767 22.8206 37.8967 22.9406 37.8967C23.2886 37.8967 23.6286 37.7607 23.8846 37.5047C27.0286 34.3607 28.8486 29.3167 29.0646 23.2767C35.4646 17.6727 39.8566 8.89268 39.9966 1.36068C40.0086 0.996678 39.8646 0.648676 39.6086 0.392676Z" fill="#3DA0FE"/>
<path id="Vector_8" d="M4.57659 27.5927C2.78459 29.3847 0.496592 36.8127 0.0565923 38.2847C-0.0834077 38.7567 0.0445909 39.2647 0.392591 39.6087C0.644591 39.8647 0.984593 40.0007 1.33259 40.0007C1.46059 40.0007 1.58859 39.9807 1.71659 39.9447C3.18859 39.5047 10.6206 37.2167 12.4086 35.4247C14.5686 33.2647 14.5686 29.7527 12.4086 27.5927C10.2446 25.4327 6.73259 25.4327 4.57659 27.5927Z" fill="#3DA0FE" fill-opacity="0.5"/>
</g>
</svg>
