<svg width="57" height="57" viewBox="0 0 57 57" fill="none" xmlns="http://www.w3.org/2000/svg">
<g id="Group 798">
<g id="Group">
<path id="Vector" d="M24.668 56.6641C23.196 56.6641 22 55.4721 22 53.9961V49.9961C22 48.5241 23.192 47.3281 24.668 47.3281C26.14 47.3281 27.336 48.5201 27.336 49.9961V53.9961C27.336 55.4721 26.144 56.6641 24.668 56.6641Z" fill="#3DA0FE"/>
<path id="Vector_2" d="M6.668 34.6641H2.668C1.196 34.6641 0 33.4721 0 31.9961C0 30.5241 1.192 29.3281 2.668 29.3281H6.668C8.14 29.3281 9.336 30.5201 9.336 31.9961C9.336 33.4721 8.144 34.6641 6.668 34.6641Z" fill="#3DA0FE"/>
<path id="Vector_3" d="M11.94 21.9359C11.256 21.9359 10.576 21.6759 10.056 21.1559L7.228 18.3279C6.188 17.2879 6.188 15.5999 7.228 14.5559C8.268 13.5119 9.956 13.5159 11 14.5559L13.828 17.3839C14.868 18.4239 14.868 20.1119 13.828 21.1559C13.304 21.6759 12.624 21.9359 11.94 21.9359Z" fill="#3DA0FE"/>
<path id="Vector_4" d="M40.228 50.224C39.544 50.224 38.864 49.964 38.344 49.444L35.516 46.616C34.476 45.576 34.476 43.888 35.516 42.844C36.556 41.8 38.244 41.804 39.288 42.844L42.116 45.672C43.156 46.712 43.156 48.4 42.116 49.444C41.592 49.964 40.908 50.224 40.228 50.224Z" fill="#3DA0FE"/>
<path id="Vector_5" d="M9.112 50.2235C8.428 50.2235 7.748 49.9635 7.228 49.4435C6.188 48.4035 6.188 46.7155 7.228 45.6715L10.056 42.8435C11.096 41.8035 12.784 41.8035 13.828 42.8435C14.872 43.8835 14.868 45.5715 13.828 46.6155L11 49.4435C10.476 49.9635 9.796 50.2235 9.112 50.2235Z" fill="#3DA0FE"/>
</g>
<path id="Vector_6" d="M24.668 0C23.564 0 22.668 0.896 22.668 2V32C22.668 33.104 23.564 34 24.668 34H54.668C55.772 34 56.668 33.104 56.668 32C56.668 14.352 42.316 0 24.668 0ZM42.112 18.328L39.284 21.156C38.764 21.676 38.08 21.936 37.4 21.936C36.72 21.936 36.036 21.676 35.516 21.156C34.476 20.116 34.476 18.428 35.516 17.384L38.344 14.556C39.384 13.516 41.072 13.516 42.116 14.556C43.16 15.596 43.152 17.284 42.112 18.328Z" fill="#E139D3"/>
</g>
</svg>
