<svg width="24" height="24" viewBox="-3 -3 24 24" fill="none" xmlns="http://www.w3.org/2000/svg">
<g id="Group 818">
<path id="Vector" d="M16.6574 1.34205L16.6575 1.34219C17.781 2.46484 17.7811 4.28392 16.6577 5.40664C16.6576 5.4067 16.6576 5.40676 16.6575 5.40681L5.60267 16.4426L5.60237 16.4429C5.37541 16.6699 5.08295 16.8216 4.7659 16.877L1.24141 17.4899C1.24136 17.4899 1.24131 17.4899 1.24126 17.4899C0.809755 17.5647 0.435419 17.1906 0.509652 16.7595C0.509656 16.7594 0.509659 16.7594 0.509663 16.7594L1.12457 13.1929C1.12458 13.1928 1.1246 13.1928 1.12461 13.1927C1.17999 12.8736 1.33226 12.5803 1.56134 12.3512C1.56138 12.3511 1.56143 12.3511 1.56148 12.3511L12.5911 1.34239L12.5915 1.34205C13.7142 0.219316 15.5346 0.219316 16.6574 1.34205Z" stroke="#3DA0FE"/>
<path id="Vector_2" d="M10.0752 3.14302L14.8482 7.91602L16.8322 5.93902L12.0592 1.16602L10.0752 3.14302Z" fill="#3DA0FE"/>
<path id="Vector_3" d="M0.391922 14.5L0.016922 16.675C-0.116078 17.447 0.554922 18.117 1.32692 17.983L3.49792 17.605L0.391922 14.5Z" fill="#3DA0FE"/>
</g>
</svg>
