<svg width="24" height="20" viewBox="-3.5 0 24 20" fill="none" xmlns="http://www.w3.org/2000/svg">
<path d="M13 5C14.1 5 15 4.1 15 3C15 1.9 14.1 1 13 1C11.9 1 11 1.9 11 3C11 4.1 11.9 5 13 5Z" fill="#3DA0FE"/>
<rect x="2.5" y="0.5" width="14" height="19" rx="2.5" stroke="#3DA0FE"/>
<path d="M17 10V8H14.36L11.33 5.49C11.29 5.47 11.26 5.45 11.22 5.43C10.87 5.15 10.44 5 10 5H6C5.73 5 5.48 5.11 5.29 5.29L2.29 8.29C1.9 8.68 1.88 9.31 2.27 9.71C2.65 10.11 3.29 10.12 3.68 9.73C3.69 9.72 3.7 9.72 3.71 9.71L6.41 7L7.26 7.27L6.27 9H6.28C6.03 9.4 5.95 9.88 6.04 10.34L4.43 12.58L1.01 13H1C0.45 13 0 13.45 0 14C0 14.55 0.45 15 1 15H5C5.27 15 5.52 14.89 5.71 14.71L8.21 12.21L10.5 14.5L11 18C11 18.55 11.45 19 12 19C12.55 19 13 18.55 13 18V14C13 13.78 12.93 13.57 12.8 13.4L10.43 10.25L11.32 8.7L13.57 9.92L13.54 9.89C13.69 9.95 13.84 10 14 10H17Z" fill="#3DA0FE"/>
</svg>
