<svg width="24" height="20" viewBox="-3 0 24 20" fill="none" xmlns="http://www.w3.org/2000/svg">
<g id="Group 817">
<path id="Vector" d="M3.16712 17.3099L1.56637 4.5H16.4336L14.8319 17.31L14.8318 17.3102C14.676 18.5609 13.6128 19.5 12.352 19.5H5.648C4.38729 19.5 3.32381 18.5609 3.16712 17.3099Z" stroke="#3DA0FE"/>
<path id="Vector_2" d="M13 2H5V1C5 0.448 5.448 0 6 0H12C12.552 0 13 0.448 13 1V2Z" fill="#3DA0FE"/>
<path id="Vector_3" d="M16 1C15.399 1 2.601 1 2 1C0.895 1 0 1.895 0 3C0 4.105 0.895 5 2 5C2.601 5 15.399 5 16 5C17.105 5 18 4.105 18 3C18 1.895 17.105 1 16 1Z" fill="#3DA0FE"/>
</g>
</svg>
