<svg width="24" height="18" viewBox="-2 0 24 18" fill="none" xmlns="http://www.w3.org/2000/svg">
<path d="M17 17.5H3C1.61614 17.5 0.5 16.3839 0.5 15V3.5H17C18.3839 3.5 19.5 4.61614 19.5 6V15C19.5 16.3839 18.3839 17.5 17 17.5Z" stroke="#3DA0FE"/>
<path d="M9 3H0V2C0 0.89 0.89 0 2 0H6.56C7.42 0 8.19 0.55 8.46 1.37L9 3Z" fill="#3DA0FE"/>
<path d="M14 9H12C11.45 9 11 8.55 11 8V7C11 6.45 11.45 6 12 6H14C14.55 6 15 6.45 15 7V8C15 8.55 14.55 9 14 9Z" fill="#3DA0FE"/>
<path d="M14 7H12C12 7 10 10.7 10 12C10 13.66 11.34 15 13 15C14.66 15 16 13.66 16 12C16 10.7 14 7 14 7ZM13 13C12.45 13 12 12.55 12 12C12 11.45 12.45 11 13 11C13.55 11 14 11.45 14 12C14 12.55 13.55 13 13 13Z" fill="#3DA0FE"/>
<path d="M15 3H11C11 3 11 3.45 11 4C11 4.55 11.45 5 12 5C12.19 5 13.81 5 14 5C14.55 5 15 4.55 15 4C15 3.45 15 3 15 3Z" fill="#3DA0FE"/>
</svg>
