<svg width="24" height="24" viewBox="-2 -2 24 24" fill="none" xmlns="http://www.w3.org/2000/svg">
<path d="M19.5 10C19.5 15.2467 15.2467 19.5 10 19.5C4.75329 19.5 0.5 15.2467 0.5 10C0.5 4.75329 4.75329 0.5 10 0.5C15.2467 0.5 19.5 4.75329 19.5 10Z" stroke="#3DA0FE"/>
<path d="M9.87961 11.97C9.20961 11.97 8.68961 11.37 8.80961 10.7C9.15961 8.69 10.7296 8.62 10.7296 7.37C10.7296 7.02 10.6696 6.25 9.82961 6.25C9.37961 6.25 9.10961 6.54 8.95961 6.85C8.74961 7.27 8.26961 7.47 7.80961 7.39C7.10961 7.27 6.68961 6.52 6.97961 5.88C7.39961 4.96 8.26961 4 9.97961 4C12.7596 4 13.1296 6.17 13.1296 7.2C13.1296 9.62 11.3296 9.71 10.9596 11.1C10.8196 11.6 10.4096 11.98 9.89961 11.98L9.87961 11.97ZM11.3196 14.53C11.3196 14.94 11.1896 15.29 10.9396 15.57C10.6796 15.85 10.3496 15.99 9.93961 15.99C9.52961 15.99 9.18961 15.85 8.93961 15.57C8.67961 15.29 8.55961 14.94 8.55961 14.53C8.55961 14.12 8.68961 13.78 8.93961 13.48C9.19961 13.19 9.52961 13.04 9.93961 13.04C10.3496 13.04 10.6896 13.19 10.9396 13.48C11.1996 13.77 11.3196 14.12 11.3196 14.53Z" fill="#3DA0FE"/>
</svg>
