<svg width="24" height="24" viewBox="-4 -4 24 24" fill="none" xmlns="http://www.w3.org/2000/svg">
<path id="Vector" d="M0 0L13 16H16L12.6113 11.8301C12.6303 11.8074 12.6513 11.7867 12.6699 11.7637L16 8L12.6699 4.23633C11.5699 2.87333 9.888 2 8 2C6.98503 2 6.0356 2.26089 5.19922 2.70703L3 0H0ZM8 5C9.657 5 11 6.343 11 8C11 8.51178 10.8715 8.99096 10.6445 9.41016L7.16211 5.12109C7.4273 5.04292 7.70867 5 8 5ZM1.83984 5.92188L0 8L3.33008 11.7637C4.43008 13.1267 6.112 14 8 14C8.131 14 8.25772 13.9865 8.38672 13.9785L1.83984 5.92188Z" fill="#1D1D1F"/>
</svg>
