<svg width="44" height="32" viewBox="0 0 44 32" fill="none" xmlns="http://www.w3.org/2000/svg">
<path d="M21.8574 0C15.5047 0 9.60234 0.452623 6.23438 1.15625C6.2272 1.15815 6.22004 1.1601 6.21289 1.16211C3.67548 1.73069 1.28619 3.54823 0.783203 6.39453C0.782537 6.39844 0.781886 6.40234 0.78125 6.40625C0.394836 8.70026 0 11.6907 0 16C0 20.3012 0.39619 23.2123 0.884766 25.627C1.40008 28.3893 3.73422 30.2618 6.31055 30.8379C6.32287 30.8413 6.33525 30.8446 6.34766 30.8477C9.86271 31.5403 15.5985 32 21.9512 32C28.3039 32 34.0427 31.5403 37.5586 30.8477C37.571 30.8446 37.5834 30.8413 37.5957 30.8379C40.1331 30.2693 42.5224 28.4518 43.0254 25.6055C43.0267 25.5983 43.028 25.5912 43.0293 25.584C43.4098 23.2432 43.9028 20.2556 44 15.9395C44.0001 15.9284 44.0001 15.9173 44 15.9062C44 11.5877 43.5057 8.57867 43.0234 6.19531C42.5122 3.42707 40.1754 1.54948 37.5957 0.972656C37.5563 0.963895 37.5165 0.956727 37.4766 0.951172C34.0464 0.46895 28.2111 0 21.8574 0ZM18.1562 8.50195C18.5267 8.4943 18.9095 8.58191 19.2695 8.78516L27.873 13.6465C29.324 14.4665 29.324 16.5355 27.873 17.3555L19.2695 22.2168C17.8305 23.0288 16.0371 22.0003 16.0371 20.3613V10.6387C16.0371 9.40942 17.045 8.52492 18.1562 8.50195Z" fill="url(#paint0_linear_203_2678)"/>
<defs>
<linearGradient id="paint0_linear_203_2678" x1="0" y1="16" x2="44.0001" y2="16" gradientUnits="userSpaceOnUse">
<stop stop-color="#3DA0FE"/>
<stop offset="0.34" stop-color="#6B60F2"/>
<stop offset="0.875" stop-color="#E139D3"/>
<stop offset="1" stop-color="#FF7280"/>
</linearGradient>
</defs>
</svg>
