<svg width="24" height="25" viewBox="0 0 24 25" fill="none" xmlns="http://www.w3.org/2000/svg">
<g id="Search">
<path id="Vector" d="M21.0329 20.4728L17.1644 16.6044C18.4763 15.0199 19.1276 12.9909 18.983 10.9389C18.8384 8.88682 17.909 6.9693 16.3877 5.58448C14.8665 4.19966 12.8703 3.45395 10.8138 3.5022C8.75717 3.55044 6.79818 4.38893 5.34355 5.84355C3.88893 7.29818 3.05044 9.25717 3.0022 11.3138C2.95395 13.3703 3.69966 15.3665 5.08448 16.8877C6.4693 18.409 8.38682 19.3384 10.4389 19.483C12.4909 19.6276 14.5199 18.9763 16.1044 17.6644L19.9729 21.5328L21.0329 20.4728ZM4.50286 11.5028C4.50286 10.2172 4.88408 8.96047 5.59831 7.89155C6.31254 6.82263 7.3277 5.98951 8.51542 5.49754C9.70314 5.00557 11.0101 4.87685 12.2709 5.12766C13.5318 5.37846 14.69 5.99752 15.5991 6.90657C16.5081 7.81561 17.1272 8.9738 17.378 10.2347C17.6288 11.4956 17.5 12.8025 17.0081 13.9902C16.5161 15.1779 15.683 16.1931 14.6141 16.9073C13.5451 17.6215 12.2884 18.0028 11.0029 18.0028C9.27955 18.0008 7.62739 17.3154 6.40883 16.0968C5.19027 14.8782 4.50482 13.2261 4.50286 11.5028Z" fill="#3DA0FE"/>
</g>
</svg>
