<svg width="24" height="24" viewBox="-4 -4 24 24" fill="none" xmlns="http://www.w3.org/2000/svg">
<g id="&#208;&#155;&#209;&#131;&#208;&#191;&#208;&#176;">
<path id="Vector" d="M7 0C3.134 0 0 3.134 0 7C0 10.866 3.134 14 7 14C8.57154 14 10.0173 13.476 11.1855 12.6016L14.3984 15.8145L15.8145 14.3984L12.6016 11.1855C13.476 10.0173 14 8.57154 14 7C14 3.134 10.866 0 7 0ZM6.5 3C7.39575 3 8.29111 3.34189 8.97461 4.02539L7.56055 5.43945C6.97455 4.85345 6.02445 4.85345 5.43945 5.43945C4.85345 6.02545 4.85345 6.97555 5.43945 7.56055L4.02539 8.97461C2.65839 7.60761 2.65839 5.39239 4.02539 4.02539C4.70889 3.34189 5.60425 3 6.5 3Z" fill="#1D1D1F"/>
<circle id="Ellipse 2" cx="7" cy="7" r="6" fill="white"/>
</g>
</svg>
