<svg width="200" height="24" viewBox="0 0 200 24" fill="none" xmlns="http://www.w3.org/2000/svg">
<g id="Cjwctnb">
<g id="Artboard">
<path id="Oval" d="M23.5 12C23.5 18.3513 18.3513 23.5 12 23.5C5.64873 23.5 0.5 18.3513 0.5 12C0.5 5.64873 5.64873 0.5 12 0.5C18.3513 0.5 23.5 5.64873 23.5 12Z" stroke="white"/>
<path id="Path-3" fill-rule="evenodd" clip-rule="evenodd" d="M5.43188 11.8733C8.93012 10.3492 11.2628 9.3444 12.43 8.85893C15.7625 7.47282 16.455 7.23203 16.9063 7.22408C17.0056 7.22234 17.2276 7.24694 17.3713 7.3636C17.4928 7.46211 17.5262 7.59518 17.5421 7.68857C17.5581 7.78197 17.578 7.99473 17.5622 8.16098C17.3816 10.0585 16.6002 14.6632 16.2027 16.7884C16.0344 17.6876 15.7032 17.9891 15.3826 18.0186C14.6857 18.0828 14.1565 17.5581 13.4816 17.1157C12.4254 16.4234 11.8288 15.9924 10.8036 15.3168C9.61882 14.536 10.3869 14.1069 11.0621 13.4056C11.2388 13.2221 14.3092 10.4294 14.3686 10.176C14.376 10.1443 14.3829 10.0262 14.3127 9.96385C14.2426 9.90148 14.139 9.92281 14.0643 9.93977C13.9584 9.96381 12.2711 11.079 9.00262 13.2853C8.52371 13.6142 8.08993 13.7744 7.70127 13.766C7.27281 13.7568 6.44862 13.5238 5.83592 13.3246C5.08442 13.0803 4.48714 12.9512 4.53915 12.5363C4.56624 12.3202 4.86382 12.0992 5.43188 11.8733Z" fill="white"/>
</g>
<g id="Clip path group">
<mask id="mask0_68_8" style="mask-type:luminance" maskUnits="userSpaceOnUse" x="44" y="0" width="24" height="24">
<g id="clip0_2_40">
<path id="Vector" d="M68 0H44V24H68V0Z" fill="white"/>
</g>
</mask>
<g mask="url(#mask0_68_8)">
<g id="Group">
<path id="Vector_2" d="M44.5 11.52C44.5 8.79058 44.5011 6.79381 44.7064 5.26634C44.9099 3.75326 45.3055 2.77577 46.0406 2.04062C46.7758 1.30547 47.7533 0.909853 49.2663 0.706425C50.7938 0.501062 52.7906 0.5 55.52 0.5H56.48C59.2094 0.5 61.2062 0.501062 62.7337 0.706425C64.2467 0.909853 65.2242 1.30547 65.9594 2.04062C66.6945 2.77577 67.0901 3.75326 67.2936 5.26634C67.4989 6.79381 67.5 8.79058 67.5 11.52V12.48C67.5 15.2094 67.4989 17.2062 67.2936 18.7337C67.0901 20.2467 66.6945 21.2242 65.9594 21.9594C65.2242 22.6945 64.2467 23.0901 62.7337 23.2936C61.2062 23.4989 59.2094 23.5 56.48 23.5H55.52C52.7906 23.5 50.7938 23.4989 49.2663 23.2936C47.7533 23.0901 46.7758 22.6945 46.0406 21.9594C45.3055 21.2242 44.9099 20.2467 44.7064 18.7337C44.5011 17.2062 44.5 15.2094 44.5 12.48V11.52Z" stroke="white"/>
<path id="Vector_3" d="M56.77 17.29C51.3 17.29 48.1801 13.54 48.05 7.30005H50.7901C50.8801 11.88 52.9 13.82 54.5 14.22V7.30005H57.0801V11.25C58.6601 11.08 60.3199 9.28005 60.8799 7.30005H63.46C63.03 9.74006 61.23 11.54 59.95 12.28C61.23 12.88 63.2801 14.45 64.0601 17.29H61.22C60.61 15.39 59.0901 13.92 57.0801 13.72V17.29H56.77Z" fill="white"/>
</g>
</g>
</g>
<g id="Group 391">
<path id="Vector_4" d="M155.023 6.7593L155.023 6.7613C155.264 7.6414 155.387 9.03916 155.446 10.2542C155.475 10.854 155.489 11.3962 155.495 11.7885C155.498 11.9846 155.499 12.1429 155.5 12.2519C155.5 12.3064 155.5 12.3486 155.5 12.377L155.5 12.409L155.5 12.4169L155.5 12.4187L155.5 12.4191L155.5 12.4192V12.4217V12.4218V12.4222L155.5 12.424L155.5 12.4319L155.5 12.4638C155.5 12.4921 155.499 12.5341 155.499 12.5883C155.498 12.6969 155.496 12.8546 155.492 13.0498C155.485 13.4405 155.469 13.9806 155.439 14.5782C155.377 15.7876 155.255 17.1825 155.022 18.0659C154.792 18.9206 154.117 19.5958 153.262 19.8265C152.843 19.9364 152.066 20.027 151.095 20.0967C150.137 20.1654 149.029 20.2115 147.976 20.2423C146.924 20.2731 145.929 20.2885 145.198 20.2962C144.832 20.3 144.532 20.302 144.324 20.3029C144.22 20.3034 144.139 20.3036 144.084 20.3038L144.021 20.3039L144.005 20.3039L144.001 20.3039H144H144L144 20.8039L144 20.3039H144H143.999L143.995 20.3039L143.979 20.3039L143.916 20.3038C143.862 20.3036 143.781 20.3034 143.677 20.3029C143.469 20.3019 143.17 20.2999 142.805 20.2959C142.075 20.2879 141.083 20.2719 140.032 20.2399C138.98 20.2078 137.874 20.1599 136.915 20.0884C135.942 20.0159 135.163 19.9217 134.74 19.8073L134.74 19.8071C133.884 19.5767 133.208 18.9009 132.977 18.0453C132.745 17.1728 132.623 15.7785 132.561 14.5659C132.531 13.967 132.515 13.4251 132.508 13.0328C132.504 12.8368 132.502 12.6785 132.501 12.5694C132.5 12.5149 132.5 12.4727 132.5 12.4443L132.5 12.4122L132.5 12.4043L132.5 12.4024L132.5 12.402V12.402V12.4019V12.4019L132.5 12.4015L132.5 12.3996L132.5 12.3917L132.5 12.3598C132.5 12.3316 132.5 12.2896 132.501 12.2353C132.502 12.1267 132.504 11.9691 132.508 11.7739C132.515 11.3832 132.531 10.8431 132.561 10.2454C132.623 9.03616 132.745 7.64129 132.977 6.75797C133.208 5.90202 133.904 5.20733 134.739 4.97709C135.158 4.86729 135.935 4.77685 136.905 4.70722C137.863 4.63844 138.97 4.59236 140.024 4.56157C141.076 4.53079 142.07 4.5154 142.802 4.50769C143.168 4.50385 143.468 4.50192 143.676 4.50096C143.78 4.50048 143.861 4.50024 143.916 4.50012L143.979 4.50001L143.995 4.5L143.999 4.5L144 4.5H144L144 4L144 4.5H144L144.001 4.5L144.005 4.5L144.021 4.50002L144.084 4.50012C144.139 4.50025 144.22 4.5005 144.324 4.501C144.532 4.502 144.832 4.504 145.198 4.508C145.929 4.51601 146.923 4.53202 147.976 4.56402C149.029 4.59604 150.136 4.64395 151.094 4.71546C152.066 4.78802 152.842 4.88223 153.258 4.99627L153.26 4.99681C154.116 5.22725 154.792 5.90338 155.023 6.7593Z" stroke="white"/>
<path id="Vector_5" d="M141.608 15.9998L147.855 12.4018L141.608 8.80383V15.9998Z" fill="#FEFEFE"/>
</g>
<g id="Icon">
<path id="Vector_6" d="M88 11.52C88 6.0888 88 3.3744 89.6872 1.6872C91.3744 0 94.0888 0 99.52 0H100.48C105.911 0 108.626 0 110.313 1.6872C112 3.3744 112 6.0888 112 11.52V12.48C112 17.9112 112 20.6256 110.313 22.3128C108.626 24 105.911 24 100.48 24H99.52C94.0888 24 91.3744 24 89.6872 22.3128C88 20.6256 88 17.9112 88 12.48V11.52Z" fill="white"/>
<path id="Vector_7" d="M96.8354 0.76998C95.5636 0.988477 94.7029 1.37466 94.0392 2.03835C93.3039 2.77359 92.9083 3.75092 92.7049 5.26383C92.4995 6.79117 92.4984 8.78786 92.4984 11.5176V12.4776C92.4984 15.2073 92.4995 17.204 92.7049 18.7314C92.9083 20.2443 93.3039 21.2216 94.0392 21.9568C94.7029 22.6205 95.5636 23.0067 96.8354 23.2252C98.1213 23.4462 99.7774 23.488 101.999 23.4952C104.221 23.488 105.877 23.4462 107.163 23.2252C108.435 23.0067 109.296 22.6205 109.959 21.9568C110.694 21.2216 111.09 20.2443 111.294 18.7314C111.499 17.204 111.5 15.2073 111.5 12.4776V11.5176C111.5 8.78786 111.499 6.79117 111.294 5.26383C111.09 3.75111 110.695 2.77384 109.96 2.03863C109.959 2.03854 109.959 2.03845 109.959 2.03835M96.8354 0.76998L109.959 2.03835M96.8354 0.76998C98.1213 0.549053 99.7773 0.50724 101.999 0.500003M96.8354 0.76998L101.999 0.500003M109.959 2.03835C109.296 1.37589 108.435 0.990283 107.163 0.771781C105.877 0.55083 104.221 0.508443 101.999 0.500003M109.959 2.03835L101.999 0.500003" fill="#0E100F" stroke="white"/>
<path id="Vector_8" d="M104.934 9.86635C106.149 10.5671 106.754 10.9175 106.958 11.3735C107.135 11.7719 107.135 12.2279 106.958 12.6263C106.754 13.0847 106.146 13.4327 104.934 14.1335L101.61 16.0535C100.396 16.7543 99.7912 17.1047 99.292 17.0519C98.8576 17.0063 98.464 16.7783 98.2072 16.4255C97.912 16.0199 97.912 15.3191 97.912 13.9199V10.0799C97.912 8.67835 97.912 7.97755 98.2072 7.57435C98.464 7.22155 98.8576 6.99355 99.292 6.94795C99.7888 6.89515 100.396 7.24555 101.61 7.94635L104.934 9.86635Z" fill="white"/>
</g>
<g id="Mask group">
<mask id="mask1_68_8" style="mask-type:alpha" maskUnits="userSpaceOnUse" x="176" y="0" width="24" height="24">
<g id="Group_2">
<path id="Vector_9" d="M176 12C176 5.37258 181.373 0 188 0C194.627 0 200 5.37258 200 12C200 18.6274 194.627 24 188 24C181.373 24 176 18.6274 176 12Z" fill="black"/>
</g>
</mask>
<g mask="url(#mask1_68_8)">
<g id="Group_3">
<path id="Vector_10" d="M176 12C176 5.37258 181.373 0 188 0C194.627 0 200 5.37258 200 12C200 18.6274 194.627 24 188 24C181.373 24 176 18.6274 176 12Z" fill="white"/>
<path id="Vector_11" fill-rule="evenodd" clip-rule="evenodd" d="M187.64 0C187.58 4.86464 187.248 7.5988 185.423 9.42334C183.599 11.2479 180.865 11.58 176 11.6404V12.3596C180.865 12.42 183.599 12.7521 185.423 14.5767C187.248 16.4012 187.58 19.1354 187.64 24H188.36C188.42 19.1354 188.752 16.4012 190.577 14.5766C192.401 12.7521 195.135 12.42 200 12.3596V11.6404C195.135 11.5799 192.401 11.2479 190.577 9.42334C188.752 7.5988 188.42 4.86462 188.36 0H187.64Z" fill="#0E100F"/>
</g>
</g>
</g>
</g>
</svg>
