<svg width="24" height="24" viewBox="-2 -2 24 24" fill="none" xmlns="http://www.w3.org/2000/svg">
<g id="Group">
<path id="Vector" d="M11.2833 2.75462L13.5824 3.71873L3.97301 10.3404V5.84826H4.32263H5.31853C5.51983 5.85886 5.86945 5.86945 6.19789 5.89064H6.20848C6.21908 5.89064 6.21908 5.89064 6.21908 5.89064C6.31443 5.90124 6.40978 5.90124 6.50513 5.91183C6.53692 5.91183 6.5687 5.92243 6.60049 5.92243C6.80178 5.94362 6.9713 5.9754 7.04546 6.00718C7.05606 6.00718 7.05606 6.01778 7.05606 6.01778C7.09844 6.02837 7.13022 6.03897 7.162 6.06016C7.18319 6.07075 7.21498 6.07075 7.23617 6.08135C7.23617 6.08135 7.24676 6.08135 7.24676 6.09194C7.35271 6.13432 7.41628 6.1767 7.45865 6.21908C7.62817 6.33562 7.75531 6.48394 7.80828 6.65346C7.80828 6.66405 7.81887 6.66405 7.81887 6.67465L11.2621 4.30144C11.1244 4.13193 10.9761 3.96241 10.8172 3.81409C10.351 3.3797 9.80008 3.04067 9.1538 2.797C8.51812 2.55332 7.81887 2.41559 7.05606 2.3838L5.94362 2.34142H0V13.0526V13.7731V16.1569L18.6043 0L11.2833 2.75462Z" fill="#3DA0FE"/>
<path id="Vector_2" d="M0 17.0894V17.6297V17.778V19.2189H6.91833C7.67055 19.2189 8.38039 19.1024 9.02667 18.8799C9.67294 18.6574 10.2345 18.329 10.7218 17.9158C11.1986 17.5026 11.58 17.0046 11.8449 16.4325C12.1097 15.8604 12.2474 15.2247 12.2474 14.5255C12.2474 14.1759 12.2051 13.8262 12.1309 13.466C12.0462 13.1058 11.919 12.7668 11.7389 12.4383C11.5588 12.1099 11.3257 11.8132 11.0397 11.5378C10.8278 11.3365 10.5629 11.167 10.2768 11.0186L7.88244 13.6143C7.9566 13.7944 7.99898 14.0063 7.99898 14.2394C7.99898 14.3983 7.97779 14.5573 7.93542 14.7162C7.89304 14.8751 7.80828 15.034 7.69174 15.1718C7.5752 15.3201 7.42687 15.4366 7.23617 15.5214C7.04546 15.6061 6.81238 15.6485 6.51573 15.6485H4.86296L14.7054 4.97967L15.2352 7.48002L19.134 0.529907L0 17.0894Z" fill="#3DA0FE"/>
</g>
</svg>
